<svg width="27" height="18" viewBox="0 0 27 18" fill="none" xmlns="http://www.w3.org/2000/svg">
<g clip-path="url(#clip0_31_356)">
<path d="M0 0H27V17.9343H0V0Z" fill="#FE0000"/>
<path d="M0 0H13.5V8.96715H0V0Z" fill="#000095"/>
<path d="M6.75 1.12085L5.0625 7.3957L9.67284 2.80219L3.375 4.48353L9.67284 6.16487L5.0625 1.57136L6.75 7.84621L8.4375 1.57136L3.82716 6.16487L10.125 4.48353L3.82716 2.80219L8.4375 7.3957L6.75 1.12085Z" fill="white"/>
<path d="M6.7502 6.2768C7.74431 6.2768 8.5502 5.47386 8.5502 4.48337C8.5502 3.49289 7.74431 2.68994 6.7502 2.68994C5.75608 2.68994 4.9502 3.49289 4.9502 4.48337C4.9502 5.47386 5.75608 6.2768 6.7502 6.2768Z" fill="white" stroke="#000095" stroke-width="1.4781"/>
</g>
<defs>
<clipPath id="clip0_31_356">
<rect width="27" height="17.9343" rx="1.8" fill="white"/>
</clipPath>
</defs>
</svg>
