<svg width="41" height="41" viewBox="0 0 41 41" fill="none" xmlns="http://www.w3.org/2000/svg">
<path d="M25.6746 20.532L40.5312 5.67541C41.0586 5.14782 41.0586 4.29408 40.5312 3.76667L37.6919 0.92614C37.439 0.673419 37.0958 0.531128 36.7376 0.531128C36.3794 0.531128 36.0362 0.673419 35.7833 0.92614L20.9268 15.7838L6.07025 0.92614C5.81737 0.673419 5.47421 0.531128 5.11594 0.531128C4.75776 0.531128 4.41451 0.673419 4.16172 0.92614L1.32242 3.76667C0.794871 4.29408 0.794871 5.14782 1.32242 5.67541L16.179 20.532L1.32389 35.3868C0.796607 35.9144 0.796607 36.7682 1.32389 37.2956L4.16337 40.1361C4.41608 40.3888 4.75932 40.5311 5.11759 40.5311C5.47586 40.5311 5.81902 40.3888 6.07198 40.1361L20.9267 25.2802L35.7815 40.1361C36.0344 40.3888 36.3775 40.5311 36.7358 40.5311C37.0942 40.5311 37.4373 40.3888 37.69 40.1361L40.5295 37.2956C41.0568 36.7682 41.0568 35.9144 40.5295 35.3868L25.6746 20.532Z" fill="#7D7D7D"/>
</svg>
