<svg width="61" height="62" viewBox="0 0 61 62" fill="none" xmlns="http://www.w3.org/2000/svg">
<path d="M22.9428 9.62542C22.4798 9.56098 22.0012 9.57198 21.5172 9.66951L21.5221 9.66461C19.0059 10.1645 16.4743 11.0324 13.9434 12.0651C12.398 12.6963 11.0832 13.7917 10.1761 15.1955C4.27918 24.2583 2.60486 33.7456 3.57726 43.1244C3.61576 43.4985 3.7379 43.8592 3.93464 44.1797C4.13137 44.5003 4.39766 44.7725 4.71381 44.9762C8.34832 47.3132 12.1378 49.3698 16.1871 50.7912C18.2822 51.5375 20.6246 50.6497 21.7915 48.8317H21.7964L23.1779 46.6663C25.628 47.4358 28.204 47.8911 30.8791 47.8911C33.547 47.8911 36.1198 47.4423 38.5655 46.6761L40.0303 48.8954V48.9003C41.211 50.6814 43.5263 51.5269 45.5808 50.8157L45.5906 50.8108C49.6544 49.384 53.4524 47.314 57.0933 44.9762C57.4104 44.773 57.6776 44.501 57.8752 44.1805C58.0728 43.8599 58.1957 43.4989 58.2348 43.1244C59.1925 33.8872 57.531 24.5497 51.8515 15.6119C51.7908 15.4596 51.7153 15.3135 51.6261 15.1759C50.7134 13.78 49.3962 12.693 47.8588 12.0651C45.328 11.0325 42.7983 10.1716 40.29 9.66951H40.285C38.3462 9.28103 36.4973 10.2909 35.4498 11.8985C34.1104 11.7728 32.8132 11.6336 30.9036 11.6781C28.9987 11.6334 27.7023 11.7684 26.3622 11.8936C25.5753 10.6861 24.3318 9.81872 22.9428 9.62542ZM22.3157 14.6468L22.7958 15.5923C23.032 16.0594 23.4084 16.4409 23.8722 16.6833C24.3361 16.9258 24.8641 17.0171 25.3825 16.9444C26.767 16.7502 28.4232 16.6298 30.8399 16.6897C30.8807 16.6907 30.9215 16.6907 30.9624 16.6897C33.3843 16.6298 35.0416 16.7505 36.4198 16.9444C36.9363 17.0168 37.4625 16.9265 37.9252 16.6859C38.3879 16.4453 38.7641 16.0665 39.0015 15.6021L39.4914 14.6468C41.5 15.0649 43.6797 15.7777 45.9629 16.7093C46.5582 16.9524 47.0522 17.3602 47.4179 17.9144L47.4228 17.9242C52.4355 25.629 53.7978 33.3479 53.184 41.3657C50.1984 43.2082 47.1966 44.8799 44.1209 45.9805L43.2636 44.6823C43.4863 44.5611 43.7255 44.4716 43.9446 44.3442C44.4245 44.0764 44.8032 43.6583 45.0224 43.1542C45.2416 42.6502 45.2892 42.0881 45.1579 41.5543C45.0265 41.0206 44.7235 40.5448 44.2954 40.2C43.8673 39.8553 43.3379 39.6607 42.7884 39.6461C42.308 39.6319 41.8335 39.7561 41.4216 40.0038C39.362 41.2008 37.1139 42.0119 34.7541 42.463C33.5029 42.6543 32.2139 42.7797 30.8693 42.8109C29.5562 42.7804 28.2893 42.6611 27.0579 42.4777C24.6767 42.0295 22.4126 41.2104 20.3365 40.0038C20.0515 39.838 19.7367 39.73 19.4099 39.686C19.0832 39.6419 18.751 39.6627 18.4323 39.747C18.1135 39.8314 17.8146 39.9777 17.5524 40.1776C17.2902 40.3776 17.07 40.6272 16.9043 40.9122C16.7386 41.1973 16.6307 41.5122 16.5868 41.8389C16.5428 42.1657 16.5636 42.4979 16.648 42.8166C16.7325 43.1353 16.8789 43.4342 17.0789 43.6963C17.2788 43.9585 17.5285 44.1786 17.8136 44.3442C18.0327 44.4716 18.2718 44.5611 18.4945 44.6823L17.6715 45.9707C14.6011 44.8739 11.6052 43.2078 8.62317 41.3657C8.0091 33.3476 9.3745 25.6286 14.3892 17.9242V17.9193C14.7456 17.3678 15.2493 16.9511 15.8393 16.7093C18.1239 15.7772 20.3083 15.0622 22.3157 14.6468ZM22.7517 25.9928C20.3413 25.9928 18.3623 28.2603 18.3623 31.0093C18.3623 33.7584 20.3413 36.0258 22.7517 36.0258C25.1622 36.0258 27.1412 33.7584 27.1412 31.0093C27.1412 28.2603 25.1622 25.9928 22.7517 25.9928ZM39.0554 25.9928C36.645 25.9928 34.666 28.2603 34.666 31.0093C34.666 33.7584 36.645 36.0258 39.0554 36.0258C41.4659 36.0258 43.4449 33.7584 43.4449 31.0093C43.4449 28.2603 41.4659 25.9928 39.0554 25.9928Z" fill="white"/>
</svg>
