<svg width="52" height="51" viewBox="0 0 52 51" fill="none" xmlns="http://www.w3.org/2000/svg">
<g clip-path="url(#clip0_14_111)">
<path d="M25.664 0.661621C11.6039 0.661621 0.164062 11.8771 0.164062 25.6616C0.164062 39.4461 11.6039 50.6616 25.664 50.6616C39.7243 50.6616 51.1641 39.4461 51.1641 25.6616C51.1641 11.8771 39.7243 0.661621 25.664 0.661621ZM24.6596 48.0387C22.2185 48.0387 19.5846 43.6016 18.2023 36.479H31.1144C29.7326 43.6016 27.1019 48.0387 24.6596 48.0387ZM17.784 33.9148C17.4845 31.7714 17.2987 29.4351 17.2502 26.9437H32.0696C32.0212 29.4351 31.8347 31.7714 31.5371 33.9148H17.784ZM2.84575 26.9437H14.6246C14.673 29.29 14.8531 31.6462 15.159 33.9148H4.40385C3.52074 31.7364 2.9876 29.3926 2.84575 26.9437ZM24.6596 3.28462C27.0636 3.28462 29.6561 7.58837 31.0556 14.5294H18.2634C19.6619 7.58837 22.2549 3.28462 24.6596 3.28462ZM31.4925 17.0923C31.8182 19.3209 32.0187 21.7666 32.0696 24.3796H17.249C17.3 21.7666 17.5 19.3222 17.8255 17.0923H31.4925ZM14.6247 24.3796H2.84575C2.99383 21.8142 3.56405 19.3579 4.5225 17.0923H15.2025C14.8692 19.4592 14.6744 21.9244 14.6247 24.3796ZM34.6953 26.9437H48.4822C48.3404 29.3926 47.8054 31.7364 46.9242 33.9148H34.1601C34.4653 31.6462 34.6468 29.29 34.6953 26.9437ZM34.6953 24.3796C34.6441 21.9245 34.4488 19.4592 34.1168 17.0923H46.8054C47.7645 19.3579 48.3341 21.8142 48.4822 24.3796H34.6953ZM45.5055 14.5282H33.6966C32.8333 10.0178 31.4298 6.07466 29.5195 3.5681C36.358 4.71438 42.166 8.83221 45.5055 14.5282ZM19.4199 4.09648C17.7029 6.61172 16.4291 10.3259 15.6251 14.5294H5.82261C8.76623 9.50769 13.6227 5.71162 19.4199 4.09648ZM5.62784 36.4789H15.5684C16.3679 40.8108 17.6608 44.6494 19.42 47.2286C13.5002 45.5759 8.54914 41.6597 5.62784 36.4789ZM29.5182 47.7544C31.4719 45.1878 32.8946 41.1187 33.7502 36.4789H45.7007C42.3946 42.3421 36.4857 46.5875 29.5182 47.7544Z" fill="white"/>
</g>
<defs>
<clipPath id="clip0_14_111">
<rect width="51" height="50" fill="white" transform="translate(0.164062 0.661621)"/>
</clipPath>
</defs>
</svg>
