<svg width="315" height="48" viewBox="0 0 315 48" fill="none" xmlns="http://www.w3.org/2000/svg">
<g clip-path="url(#clip0_12_86)">
<path d="M19.8763 47.0576C16.8043 47.0576 14.0096 46.3749 11.4923 45.0096C9.01759 43.6016 7.03359 41.5749 5.54026 38.9296C4.08959 36.2416 3.36426 32.9776 3.36426 29.1376V18.3856C3.36426 12.6256 4.98559 8.20958 8.22826 5.13758C11.471 2.02288 15.8656 0.465576 21.4123 0.465576C26.9163 0.465576 31.1616 1.93757 34.1483 4.88157C37.1776 7.78287 38.6923 11.7296 38.6923 16.7216V16.9776H30.3723V16.4656C30.3723 14.8869 30.031 13.4576 29.3483 12.1776C28.7083 10.8976 27.727 9.89487 26.4043 9.16957C25.0816 8.40157 23.4176 8.01758 21.4123 8.01758C18.4256 8.01758 16.079 8.93488 14.3723 10.7696C12.6656 12.6043 11.8123 15.1003 11.8123 18.2576V29.2656C11.8123 32.3803 12.6656 34.8976 14.3723 36.8176C16.079 38.6949 18.4683 39.6336 21.5403 39.6336C24.6123 39.6336 26.8523 38.8229 28.2603 37.2016C29.6683 35.5803 30.3723 33.5323 30.3723 31.0576V30.4176H19.7483V23.2496H38.6923V46.1616H30.8843V41.8736H29.7323C29.4336 42.5989 28.943 43.3669 28.2603 44.1776C27.6203 44.9883 26.639 45.6709 25.3163 46.2256C23.9936 46.7803 22.1803 47.0576 19.8763 47.0576ZM46.7633 46.1616V1.36158H75.5633V9.04157H55.2113V19.7296H73.7713V27.4096H55.2113V38.4816H75.9473V46.1616H46.7633ZM82.2008 46.1616V1.36158H111.001V9.04157H90.6488V19.7296H109.209V27.4096H90.6488V38.4816H111.385V46.1616H82.2008ZM117.638 46.1616V1.36158H126.086V19.1536H127.238L141.766 1.36158H152.582L133.894 23.4416L153.222 46.1616H142.086L127.238 27.9856H126.086V46.1616H117.638ZM190.975 47.0576C185.428 47.0576 181.033 45.5216 177.791 42.4496C174.548 39.3349 172.927 34.8976 172.927 29.1376V18.3856C172.927 12.6256 174.548 8.20958 177.791 5.13758C181.033 2.02288 185.428 0.465576 190.975 0.465576C196.479 0.465576 200.724 1.98027 203.711 5.00957C206.74 7.99627 208.255 12.1136 208.255 17.3616V17.7456H199.935V17.1056C199.935 14.4603 199.188 12.2843 197.695 10.5776C196.244 8.87088 194.004 8.01758 190.975 8.01758C187.988 8.01758 185.641 8.93488 183.935 10.7696C182.228 12.6043 181.375 15.1003 181.375 18.2576V29.2656C181.375 32.3803 182.228 34.8763 183.935 36.7536C185.641 38.5883 187.988 39.5056 190.975 39.5056C194.004 39.5056 196.244 38.6523 197.695 36.9456C199.188 35.1963 199.935 33.0203 199.935 30.4176V29.2656H208.255V30.1616C208.255 35.4096 206.74 39.5483 203.711 42.5776C200.724 45.5643 196.479 47.0576 190.975 47.0576ZM232.546 47.0576C226.914 47.0576 222.434 45.5216 219.106 42.4496C215.778 39.3349 214.114 34.8976 214.114 29.1376V18.3856C214.114 12.6256 215.778 8.20958 219.106 5.13758C222.434 2.02288 226.914 0.465576 232.546 0.465576C238.178 0.465576 242.658 2.02288 245.986 5.13758C249.314 8.20958 250.978 12.6256 250.978 18.3856V29.1376C250.978 34.8976 249.314 39.3349 245.986 42.4496C242.658 45.5216 238.178 47.0576 232.546 47.0576ZM232.546 39.5056C235.703 39.5056 238.157 38.5883 239.906 36.7536C241.655 34.9189 242.53 32.4656 242.53 29.3936V18.1296C242.53 15.0576 241.655 12.6043 239.906 10.7696C238.157 8.93488 235.703 8.01758 232.546 8.01758C229.431 8.01758 226.978 8.93488 225.186 10.7696C223.437 12.6043 222.562 15.0576 222.562 18.1296V29.3936C222.562 32.4656 223.437 34.9189 225.186 36.7536C226.978 38.5883 229.431 39.5056 232.546 39.5056ZM258.388 46.1616V1.36158H266.836V46.1616H258.388ZM275.263 46.1616V1.36158H291.327L300.223 40.4016H301.375V1.36158H309.695V46.1616H293.631L284.735 7.12157H283.583V46.1616H275.263Z" fill="white"/>
<path d="M85.334 1.35754H74.334V9.0426H85.334V1.35754Z" fill="white"/>
<path d="M83.5596 19.7239H72.5596V27.4089H83.5596V19.7239Z" fill="white"/>
<path d="M85.334 38.4766H74.334V46.1616H85.334V38.4766Z" fill="white"/>
<path d="M222.585 17.7301H214.021V29.2681H222.585V17.7301Z" fill="#232323"/>
</g>
<defs>
<clipPath id="clip0_12_86">
<rect width="314" height="47" fill="white" transform="translate(0.164062 0.161621)"/>
</clipPath>
</defs>
</svg>
