<svg width="61" height="62" viewBox="0 0 61 62" fill="none" xmlns="http://www.w3.org/2000/svg">
<path d="M44.2444 8.4104C43.8798 8.42216 43.5222 8.51329 43.1965 8.67743C42.8707 8.84157 42.5847 9.07478 42.3583 9.36079L31.7864 22.3675L23.1251 10.37C22.2472 9.15598 20.8405 8.43489 19.3431 8.43489H10.6377C8.98722 8.43489 8.03083 10.3068 8.99651 11.6437L23.8207 32.1703L9.75095 49.4929C9.53078 49.7468 9.36387 50.0424 9.26013 50.362C9.15638 50.6816 9.11792 51.0189 9.14703 51.3537C9.17613 51.6884 9.27221 52.014 9.42955 52.3109C9.58689 52.6079 9.8023 52.8702 10.063 53.0823C10.3236 53.2943 10.6243 53.4519 10.947 53.5455C11.2698 53.6392 11.608 53.667 11.9417 53.6274C12.2754 53.5878 12.5978 53.4816 12.8897 53.315C13.1815 53.1484 13.4369 52.9249 13.6407 52.6577L26.8679 36.3834L37.8905 51.6485C38.7684 52.8625 40.175 53.5836 41.6725 53.5836H50.3779C52.0283 53.5836 52.9847 51.7117 52.019 50.3748L34.8335 26.5757L46.2481 12.5255C46.5581 12.1543 46.7541 11.7013 46.8127 11.2212C46.8712 10.7412 46.7897 10.2544 46.578 9.81954C46.3662 9.3847 46.0333 9.02034 45.6193 8.77033C45.2053 8.52032 44.7278 8.39533 44.2444 8.4104ZM16.487 13.4514H19.1618L44.5237 48.567H41.8537L16.487 13.4514Z" fill="white"/>
</svg>
