<svg width="208" height="32" viewBox="0 0 208 32" fill="none" xmlns="http://www.w3.org/2000/svg">
<g clip-path="url(#clip0_14_179)">
<path d="M31.2111 16.0351C31.2111 24.6447 24.2609 31.6244 15.6873 31.6244C7.11365 31.6244 0.164062 24.6468 0.164062 16.0351C0.164062 7.42349 7.11417 0.446375 15.6873 0.446375C24.2604 0.446375 31.2111 7.42559 31.2111 16.0351ZM48.2408 16.0351C48.2408 24.14 44.7655 30.7096 40.4789 30.7096C36.1924 30.7096 32.7171 24.1379 32.7171 16.0351C32.7171 7.93241 36.1924 1.36064 40.4789 1.36064C44.7655 1.36064 48.2408 7.93241 48.2408 16.0351ZM55.2062 16.0351C55.2062 23.2967 53.9838 29.1829 52.4762 29.1829C50.9687 29.1829 49.7463 23.2946 49.7463 16.0351C49.7463 8.7757 50.9687 2.88739 52.4768 2.88739C53.9849 2.88739 55.2062 8.77412 55.2062 16.0351ZM98.0492 1.79806L98.0924 1.78859V1.45475H89.2641L81.0669 20.6706L72.8696 1.45475H63.3561V1.78859L63.3988 1.79806C65.0102 2.16082 65.8283 2.70181 65.8283 4.65283V27.4937C65.8283 29.4447 65.007 29.9857 63.3956 30.3484L63.3529 30.3579V30.6928H69.8075V30.359L69.7648 30.3495C68.1534 29.9867 67.3353 29.4457 67.3353 27.4947V5.9777L77.8656 30.6928H78.4629L89.3 5.28845V28.0588C89.1619 29.5998 88.3512 30.0756 86.8921 30.4042L86.8489 30.4142V30.7454H98.0924V30.4142L98.0492 30.4042C96.5885 30.0756 95.7583 29.5998 95.6202 28.0588L95.6128 4.65283H95.6202C95.6202 2.70181 96.4383 2.16082 98.0492 1.79806ZM103.185 16.9289C103.369 12.825 104.846 9.86293 107.326 9.81193C108.091 9.82455 108.732 10.0748 109.231 10.5564C110.291 11.5821 110.789 13.7256 110.712 16.9289H103.185ZM103.074 18.0855H116.252V18.0303C116.214 14.8922 115.303 12.4512 113.546 10.7751C112.026 9.32667 109.777 8.52965 107.415 8.52965H107.362C106.136 8.52965 104.632 8.82617 103.562 9.36348C102.344 9.92602 101.269 10.7672 100.375 11.8713C98.9363 13.6498 98.0645 16.0535 97.8525 18.7548C97.8457 18.8358 97.8399 18.9167 97.8341 18.9977C97.8283 19.0787 97.8246 19.1512 97.821 19.2285C97.8022 19.6083 97.7959 19.9886 97.802 20.3688C97.9448 26.4869 101.258 31.3763 107.144 31.3763C112.309 31.3763 115.318 27.6099 116.068 22.5543L115.689 22.4213C114.371 25.1383 112.004 26.785 109.311 26.5841C105.633 26.3097 102.816 22.5911 103.072 18.0866M131.151 26.3765C130.719 27.399 129.817 27.9616 128.609 27.9616C127.4 27.9616 126.295 27.1341 125.51 25.6304C124.667 24.0164 124.223 21.7347 124.223 19.0319C124.223 13.4064 125.977 9.76777 128.692 9.76777C129.829 9.76777 130.724 10.3303 131.151 11.3119V26.3765ZM139.893 30.3868C138.282 30.0067 137.464 29.4405 137.464 27.3901V0.109375L127.673 2.98623V3.33848L127.734 3.33375C129.084 3.22492 130 3.41103 130.532 3.90102C130.948 4.28481 131.151 4.87364 131.151 5.70221V9.44234C130.186 8.82775 129.038 8.5286 127.645 8.5286C124.82 8.5286 122.237 9.7152 120.375 11.8702C118.434 14.1162 117.407 17.1855 117.407 20.7453C117.406 27.103 120.545 31.3763 125.215 31.3763C127.947 31.3763 130.145 29.8832 131.151 27.3649V30.7454H139.936V30.3952L139.893 30.3868ZM148.29 3.81953C148.29 1.83433 146.789 0.337021 144.798 0.337021C142.817 0.337021 141.266 1.86693 141.266 3.81953C141.266 5.77214 142.818 7.30204 144.798 7.30204C146.789 7.30204 148.29 5.80473 148.29 3.81953ZM150.601 30.3868C148.989 30.0067 148.171 29.4405 148.171 27.3901H148.164V8.59326L139.379 11.1089V11.4507L139.432 11.4554C141.333 11.6242 141.853 12.2771 141.853 14.4926V30.7454H150.645V30.3952L150.601 30.3868ZM173.111 30.3868C171.5 30.0067 170.682 29.4405 170.682 27.3901V8.59326L162.318 11.0259V11.3687L162.367 11.3739C163.921 11.5369 164.37 12.2272 164.37 14.4527V26.3344C163.852 27.357 162.88 27.9642 161.702 28.0052C159.793 28.0052 158.741 26.7187 158.741 24.3829V8.59379L149.956 11.1095V11.4507L150.009 11.4554C151.91 11.6236 152.43 12.2766 152.43 14.4926V24.5485C152.426 25.2505 152.487 25.9513 152.613 26.642L152.771 27.3281C153.515 29.9862 155.464 31.3763 158.517 31.3763C161.103 31.3763 163.37 29.7796 164.368 27.2813V30.7512H173.153V30.401L173.111 30.3868ZM207.239 30.7454V30.3947L207.196 30.3847C205.448 29.9825 204.767 29.2244 204.767 27.6808V14.8948C204.767 10.9081 202.522 8.5286 198.761 8.5286C196.02 8.5286 193.709 10.1085 192.819 12.5694C192.112 9.96177 190.078 8.5286 187.07 8.5286C184.428 8.5286 182.358 9.91919 181.469 12.2682V8.59484L172.684 11.0075V11.3513L172.737 11.356C174.615 11.5222 175.158 12.1941 175.158 14.3528V30.7454H183.355V30.3952L183.312 30.3847C181.917 30.0577 181.467 29.4615 181.467 27.9316V13.276C181.836 12.4165 182.58 11.3981 184.05 11.3981C185.876 11.3981 186.801 12.6599 186.801 15.1456V30.7454H195V30.3952L194.957 30.3847C193.562 30.0577 193.112 29.4615 193.112 27.9316V14.8932C193.116 14.4057 193.077 13.9188 192.996 13.438C193.387 12.5037 194.174 11.3981 195.704 11.3981C197.556 11.3981 198.455 12.6236 198.455 15.1456V30.7454H207.239Z" fill="white"/>
</g>
<defs>
<clipPath id="clip0_14_179">
<rect width="207.082" height="31.6041" fill="white" transform="translate(0.165039 0.109375)"/>
</clipPath>
</defs>
</svg>
