<svg width="61" height="62" viewBox="0 0 61 62" fill="none" xmlns="http://www.w3.org/2000/svg">
<path d="M52.6087 5.97124C51.536 5.85002 50.4155 6.0091 49.346 6.51993L6.59776 26.9436H6.59286C4.12738 28.1225 2.91875 30.7244 3.1538 33.0624C3.38886 35.4004 5.09285 37.7149 7.74412 38.3778L14.8182 40.1463C17.5986 40.8414 20.5453 40.3306 22.9308 38.7403C22.9407 38.7338 22.9505 38.7273 22.9602 38.7207L24.2977 37.8046C23.1549 40.7085 24.0511 44.2189 26.8598 46.0054C26.9156 46.0403 26.9728 46.073 27.0313 46.1034L44.3 55.2938C48.5166 57.538 53.8419 54.7084 54.3429 49.9589L58.2718 12.7906C58.2719 12.7824 58.2719 12.7742 58.2718 12.7661C58.6111 9.22656 55.8266 6.33492 52.6087 5.97124ZM52.2167 10.8898C52.8759 10.9178 53.3554 11.4713 53.2798 12.286V12.2909L49.3558 49.4298C49.2096 50.8154 47.8878 51.5205 46.6564 50.8652L29.5444 41.758C28.5717 41.126 28.4316 39.8923 29.2554 39.0685C29.2669 39.0572 29.2784 39.0458 29.2897 39.0342L42.5511 25.2241C42.9818 24.7763 43.2309 24.1846 43.2503 23.5636C43.2697 22.9427 43.0579 22.3366 42.6561 21.8628C42.2542 21.389 41.6909 21.0811 41.075 20.9989C40.4592 20.9167 39.8348 21.0659 39.3227 21.4176L20.1482 34.5664C18.9369 35.3739 17.4465 35.6301 16.0331 35.2767L8.96395 33.5082C8.34445 33.3533 8.19233 33.0252 8.14583 32.5627C8.09933 32.1002 8.18116 31.7462 8.7582 31.4703L51.5113 11.0466C51.7569 10.9293 51.997 10.8804 52.2167 10.8898Z" fill="white"/>
</svg>
