<svg width="379" height="379" viewBox="0 0 379 379" fill="none" xmlns="http://www.w3.org/2000/svg">
<path d="M145.639 346.114C129.205 341.534 113.594 334.395 99.3791 324.959L117.362 297.868C128.733 305.416 141.222 311.127 154.37 314.792L145.639 346.114Z" fill="#EE997A"/>
<path d="M99.3492 324.94C93.6741 321.171 88.2414 317.049 83.0834 312.599L104.325 287.979C108.452 291.539 112.798 294.837 117.338 297.852L99.3492 324.94Z" fill="#DE4E19"/>
<path d="M83.0827 312.598C75.3425 305.92 68.2494 298.526 61.8976 290.516L87.3766 270.313C92.458 276.721 98.1325 282.636 104.325 287.979L83.0827 312.598Z" fill="#C5164E"/>
<path d="M61.9187 290.543C37.8602 260.214 25.4126 222.297 26.8148 183.611C28.2171 144.924 43.3772 108.008 69.5683 79.501C95.7595 50.9943 131.263 32.7684 169.692 28.1015C208.122 23.4346 246.955 32.633 279.208 54.0423C311.461 75.4515 335.017 107.667 345.638 144.893C356.259 182.119 353.249 221.914 337.148 257.119C321.048 292.324 292.915 320.629 257.808 336.942C222.702 353.256 182.926 356.508 145.636 346.114L154.367 314.791C184.2 323.107 216.02 320.505 244.105 307.454C272.19 294.403 294.697 271.759 307.577 243.595C320.457 215.431 322.866 183.595 314.369 153.814C305.872 124.033 287.028 98.2612 261.225 81.1339C235.423 64.0064 204.356 56.6477 173.612 60.3812C142.869 64.1147 114.466 78.6954 93.5132 101.501C72.5603 124.306 60.4322 153.839 59.3104 184.789C58.1885 215.738 68.1466 246.072 87.3934 270.334L61.9187 290.543Z" fill="white"/>
<circle cx="189.292" cy="188.006" r="11.0059" fill="#C5164E"/>
<circle cx="189.292" cy="237.006" r="11.0059" fill="#DE4E19"/>
<circle cx="189.292" cy="290.006" r="11.0059" fill="#EE997A"/>
<circle cx="189.292" cy="136.006" r="11.0059" fill="white"/>
<path d="M127.21 268.784C125.908 268.784 124.868 268.416 124.09 267.68C123.322 266.933 122.938 265.813 122.938 264.32V261.6C122.938 260.139 123.322 259.029 124.09 258.272C124.868 257.515 125.908 257.136 127.21 257.136C128.522 257.136 129.562 257.515 130.33 258.272C131.108 259.029 131.498 260.139 131.498 261.6V264.32C131.498 265.813 131.108 266.933 130.33 267.68C129.562 268.416 128.522 268.784 127.21 268.784ZM127.21 267.28C128.095 267.28 128.751 267.029 129.178 266.528C129.604 266.016 129.818 265.301 129.818 264.384V261.504C129.818 260.587 129.588 259.883 129.13 259.392C128.671 258.891 128.031 258.64 127.21 258.64C126.378 258.64 125.738 258.896 125.29 259.408C124.842 259.909 124.618 260.608 124.618 261.504V264.384C124.618 265.323 124.831 266.043 125.258 266.544C125.695 267.035 126.346 267.28 127.21 267.28ZM138.346 268.784C137.535 268.784 136.821 268.629 136.202 268.32C135.583 268 135.103 267.557 134.762 266.992C134.421 266.427 134.25 265.771 134.25 265.024V261.152C134.25 260.277 134.421 259.541 134.762 258.944C135.114 258.347 135.605 257.899 136.234 257.6C136.863 257.291 137.594 257.136 138.426 257.136C139.247 257.136 139.957 257.28 140.554 257.568C141.151 257.845 141.61 258.245 141.93 258.768C142.25 259.28 142.41 259.883 142.41 260.576H140.714C140.714 260.021 140.527 259.563 140.154 259.2C139.791 258.827 139.215 258.64 138.426 258.64C137.626 258.64 137.007 258.853 136.57 259.28C136.143 259.696 135.93 260.277 135.93 261.024V262.368H136.186C136.367 262.112 136.661 261.867 137.066 261.632C137.482 261.397 138.069 261.28 138.826 261.28C139.487 261.28 140.095 261.424 140.65 261.712C141.205 262 141.647 262.411 141.978 262.944C142.319 263.477 142.49 264.123 142.49 264.88V265.072C142.49 265.808 142.314 266.459 141.962 267.024C141.61 267.579 141.119 268.011 140.49 268.32C139.871 268.629 139.157 268.784 138.346 268.784ZM138.362 267.28C139.109 267.28 139.701 267.077 140.138 266.672C140.586 266.267 140.81 265.723 140.81 265.04V264.912C140.81 264.453 140.709 264.059 140.506 263.728C140.303 263.387 140.015 263.12 139.642 262.928C139.279 262.736 138.853 262.64 138.362 262.64C137.882 262.64 137.455 262.736 137.082 262.928C136.719 263.12 136.437 263.387 136.234 263.728C136.031 264.059 135.93 264.453 135.93 264.912V265.04C135.93 265.723 136.149 266.267 136.586 266.672C137.034 267.077 137.626 267.28 138.362 267.28ZM146.406 268.784C146.033 268.784 145.718 268.661 145.462 268.416C145.217 268.171 145.094 267.856 145.094 267.472C145.094 267.088 145.217 266.779 145.462 266.544C145.718 266.299 146.033 266.176 146.406 266.176C146.78 266.176 147.089 266.299 147.334 266.544C147.59 266.789 147.718 267.099 147.718 267.472C147.718 267.856 147.59 268.171 147.334 268.416C147.089 268.661 146.78 268.784 146.406 268.784ZM154.553 268.784C153.252 268.784 152.212 268.416 151.433 267.68C150.665 266.933 150.281 265.813 150.281 264.32V261.6C150.281 260.139 150.665 259.029 151.433 258.272C152.212 257.515 153.252 257.136 154.553 257.136C155.865 257.136 156.905 257.515 157.673 258.272C158.452 259.029 158.841 260.139 158.841 261.6V264.32C158.841 265.813 158.452 266.933 157.673 267.68C156.905 268.416 155.865 268.784 154.553 268.784ZM154.553 267.28C155.439 267.28 156.095 267.029 156.521 266.528C156.948 266.016 157.161 265.301 157.161 264.384V261.504C157.161 260.587 156.932 259.883 156.473 259.392C156.015 258.891 155.375 258.64 154.553 258.64C153.721 258.64 153.081 258.896 152.633 259.408C152.185 259.909 151.961 260.608 151.961 261.504V264.384C151.961 265.323 152.175 266.043 152.601 266.544C153.039 267.035 153.689 267.28 154.553 267.28ZM164.826 268.56V258.544H164.57L162.73 262.32H160.954L163.434 257.36H166.506V268.56H164.826ZM170.875 268.784C170.502 268.784 170.187 268.661 169.931 268.416C169.686 268.171 169.563 267.856 169.563 267.472C169.563 267.088 169.686 266.779 169.931 266.544C170.187 266.299 170.502 266.176 170.875 266.176C171.248 266.176 171.558 266.299 171.803 266.544C172.059 266.789 172.187 267.099 172.187 267.472C172.187 267.856 172.059 268.171 171.803 268.416C171.558 268.661 171.248 268.784 170.875 268.784ZM174.857 268.56V267.296C174.857 266.517 174.99 265.877 175.257 265.376C175.524 264.875 175.902 264.469 176.393 264.16C176.894 263.84 177.497 263.573 178.201 263.36L179.177 263.056C179.614 262.917 179.988 262.747 180.297 262.544C180.617 262.341 180.862 262.091 181.033 261.792C181.204 261.483 181.289 261.125 181.289 260.72V260.656C181.289 260.027 181.076 259.536 180.649 259.184C180.222 258.821 179.662 258.64 178.969 258.64C178.254 258.64 177.673 258.832 177.225 259.216C176.788 259.6 176.569 260.165 176.569 260.912V261.168H174.905V260.928C174.905 260.117 175.081 259.435 175.433 258.88C175.785 258.315 176.27 257.883 176.889 257.584C177.508 257.285 178.201 257.136 178.969 257.136C179.737 257.136 180.42 257.28 181.017 257.568C181.625 257.856 182.1 258.261 182.441 258.784C182.793 259.307 182.969 259.92 182.969 260.624V260.768C182.969 261.493 182.825 262.096 182.537 262.576C182.249 263.056 181.849 263.451 181.337 263.76C180.836 264.069 180.254 264.331 179.593 264.544L178.649 264.832C178.148 264.981 177.742 265.147 177.433 265.328C177.134 265.499 176.91 265.707 176.761 265.952C176.622 266.197 176.553 266.512 176.553 266.896V267.056H182.873V268.56H174.857ZM189.803 268.784C188.502 268.784 187.462 268.416 186.683 267.68C185.915 266.933 185.531 265.813 185.531 264.32V261.6C185.531 260.139 185.915 259.029 186.683 258.272C187.462 257.515 188.502 257.136 189.803 257.136C191.115 257.136 192.155 257.515 192.923 258.272C193.702 259.029 194.091 260.139 194.091 261.6V264.32C194.091 265.813 193.702 266.933 192.923 267.68C192.155 268.416 191.115 268.784 189.803 268.784ZM189.803 267.28C190.689 267.28 191.345 267.029 191.771 266.528C192.198 266.016 192.411 265.301 192.411 264.384V261.504C192.411 260.587 192.182 259.883 191.723 259.392C191.265 258.891 190.625 258.64 189.803 258.64C188.971 258.64 188.331 258.896 187.883 259.408C187.435 259.909 187.211 260.608 187.211 261.504V264.384C187.211 265.323 187.425 266.043 187.851 266.544C188.289 267.035 188.939 267.28 189.803 267.28ZM196.732 268.56V267.296C196.732 266.517 196.865 265.877 197.132 265.376C197.399 264.875 197.777 264.469 198.268 264.16C198.769 263.84 199.372 263.573 200.076 263.36L201.052 263.056C201.489 262.917 201.863 262.747 202.172 262.544C202.492 262.341 202.737 262.091 202.908 261.792C203.079 261.483 203.164 261.125 203.164 260.72V260.656C203.164 260.027 202.951 259.536 202.524 259.184C202.097 258.821 201.537 258.64 200.844 258.64C200.129 258.64 199.548 258.832 199.1 259.216C198.663 259.6 198.444 260.165 198.444 260.912V261.168H196.78V260.928C196.78 260.117 196.956 259.435 197.308 258.88C197.66 258.315 198.145 257.883 198.764 257.584C199.383 257.285 200.076 257.136 200.844 257.136C201.612 257.136 202.295 257.28 202.892 257.568C203.5 257.856 203.975 258.261 204.316 258.784C204.668 259.307 204.844 259.92 204.844 260.624V260.768C204.844 261.493 204.7 262.096 204.412 262.576C204.124 263.056 203.724 263.451 203.212 263.76C202.711 264.069 202.129 264.331 201.468 264.544L200.524 264.832C200.023 264.981 199.617 265.147 199.308 265.328C199.009 265.499 198.785 265.707 198.636 265.952C198.497 266.197 198.428 266.512 198.428 266.896V267.056H204.748V268.56H196.732ZM211.358 268.784C210.516 268.784 209.785 268.629 209.166 268.32C208.548 268.011 208.068 267.573 207.726 267.008C207.396 266.443 207.23 265.787 207.23 265.04V264.864H208.942V265.024C208.942 265.707 209.15 266.256 209.566 266.672C209.993 267.077 210.585 267.28 211.342 267.28C212.121 267.28 212.724 267.067 213.15 266.64C213.577 266.213 213.79 265.637 213.79 264.912V264.768C213.79 264.075 213.577 263.52 213.15 263.104C212.734 262.688 212.201 262.48 211.55 262.48C211.188 262.48 210.884 262.539 210.638 262.656C210.404 262.763 210.212 262.896 210.062 263.056C209.924 263.216 209.806 263.371 209.71 263.52H207.582V257.36H215.086V258.88H209.262V262.176H209.518C209.625 261.995 209.774 261.824 209.966 261.664C210.169 261.493 210.43 261.355 210.75 261.248C211.07 261.141 211.454 261.088 211.902 261.088C212.564 261.088 213.161 261.232 213.694 261.52C214.238 261.797 214.67 262.213 214.99 262.768C215.31 263.312 215.47 263.973 215.47 264.752V264.928C215.47 265.707 215.305 266.384 214.974 266.96C214.644 267.536 214.169 267.984 213.55 268.304C212.942 268.624 212.212 268.784 211.358 268.784ZM222.929 265.216V263.712H227.665V265.216H222.929ZM239.311 268.784C238.469 268.784 237.738 268.629 237.119 268.32C236.501 268.011 236.021 267.573 235.679 267.008C235.349 266.443 235.183 265.787 235.183 265.04V264.864H236.895V265.024C236.895 265.707 237.103 266.256 237.519 266.672C237.946 267.077 238.538 267.28 239.295 267.28C240.074 267.28 240.677 267.067 241.103 266.64C241.53 266.213 241.743 265.637 241.743 264.912V264.768C241.743 264.075 241.53 263.52 241.103 263.104C240.687 262.688 240.154 262.48 239.503 262.48C239.141 262.48 238.837 262.539 238.591 262.656C238.357 262.763 238.165 262.896 238.015 263.056C237.877 263.216 237.759 263.371 237.663 263.52H235.535V257.36H243.039V258.88H237.215V262.176H237.471C237.578 261.995 237.727 261.824 237.919 261.664C238.122 261.493 238.383 261.355 238.703 261.248C239.023 261.141 239.407 261.088 239.855 261.088C240.517 261.088 241.114 261.232 241.647 261.52C242.191 261.797 242.623 262.213 242.943 262.768C243.263 263.312 243.423 263.973 243.423 264.752V264.928C243.423 265.707 243.258 266.384 242.927 266.96C242.597 267.536 242.122 267.984 241.503 268.304C240.895 268.624 240.165 268.784 239.311 268.784ZM247.314 268.768L246.29 267.936L255.042 257.152L256.066 257.984L247.314 268.768ZM254.242 268.736C253.452 268.736 252.828 268.517 252.37 268.08C251.911 267.632 251.682 267.029 251.682 266.272V266.176C251.682 265.408 251.911 264.805 252.37 264.368C252.828 263.92 253.452 263.696 254.242 263.696C255.02 263.696 255.644 263.92 256.114 264.368C256.583 264.805 256.818 265.408 256.818 266.176V266.272C256.818 267.029 256.583 267.632 256.114 268.08C255.655 268.517 255.031 268.736 254.242 268.736ZM254.242 267.616C254.626 267.616 254.924 267.499 255.138 267.264C255.362 267.029 255.474 266.72 255.474 266.336V266.112C255.474 265.717 255.362 265.403 255.138 265.168C254.924 264.933 254.626 264.816 254.242 264.816C253.868 264.816 253.57 264.933 253.346 265.168C253.132 265.403 253.026 265.717 253.026 266.112V266.336C253.026 266.72 253.132 267.029 253.346 267.264C253.57 267.499 253.868 267.616 254.242 267.616ZM248.114 262.224C247.324 262.224 246.695 262.005 246.226 261.568C245.767 261.12 245.538 260.517 245.538 259.76V259.648C245.538 258.88 245.767 258.277 246.226 257.84C246.695 257.403 247.324 257.184 248.114 257.184C248.892 257.184 249.511 257.403 249.97 257.84C250.439 258.277 250.674 258.88 250.674 259.648V259.76C250.674 260.517 250.444 261.12 249.986 261.568C249.527 262.005 248.903 262.224 248.114 262.224ZM248.114 261.104C248.487 261.104 248.78 260.987 248.994 260.752C249.218 260.507 249.33 260.192 249.33 259.808V259.584C249.33 259.2 249.218 258.891 248.994 258.656C248.78 258.421 248.487 258.304 248.114 258.304C247.73 258.304 247.426 258.421 247.202 258.656C246.988 258.891 246.882 259.2 246.882 259.584V259.808C246.882 260.192 246.988 260.507 247.202 260.752C247.426 260.987 247.73 261.104 248.114 261.104Z" fill="white"/>
<path d="M126.961 220.784C125.659 220.784 124.619 220.416 123.841 219.68C123.073 218.933 122.689 217.813 122.689 216.32V213.6C122.689 212.139 123.073 211.029 123.841 210.272C124.619 209.515 125.659 209.136 126.961 209.136C128.273 209.136 129.313 209.515 130.081 210.272C130.859 211.029 131.249 212.139 131.249 213.6V216.32C131.249 217.813 130.859 218.933 130.081 219.68C129.313 220.416 128.273 220.784 126.961 220.784ZM126.961 219.28C127.846 219.28 128.502 219.029 128.929 218.528C129.355 218.016 129.569 217.301 129.569 216.384V213.504C129.569 212.587 129.339 211.883 128.881 211.392C128.422 210.891 127.782 210.64 126.961 210.64C126.129 210.64 125.489 210.896 125.041 211.408C124.593 211.909 124.369 212.608 124.369 213.504V216.384C124.369 217.323 124.582 218.043 125.009 218.544C125.446 219.035 126.097 219.28 126.961 219.28ZM138.097 220.784C137.286 220.784 136.572 220.629 135.953 220.32C135.334 220 134.854 219.557 134.513 218.992C134.172 218.427 134.001 217.771 134.001 217.024V213.152C134.001 212.277 134.172 211.541 134.513 210.944C134.865 210.347 135.356 209.899 135.985 209.6C136.614 209.291 137.345 209.136 138.177 209.136C138.998 209.136 139.708 209.28 140.305 209.568C140.902 209.845 141.361 210.245 141.681 210.768C142.001 211.28 142.161 211.883 142.161 212.576H140.465C140.465 212.021 140.278 211.563 139.905 211.2C139.542 210.827 138.966 210.64 138.177 210.64C137.377 210.64 136.758 210.853 136.321 211.28C135.894 211.696 135.681 212.277 135.681 213.024V214.368H135.937C136.118 214.112 136.412 213.867 136.817 213.632C137.233 213.397 137.82 213.28 138.577 213.28C139.238 213.28 139.846 213.424 140.401 213.712C140.956 214 141.398 214.411 141.729 214.944C142.07 215.477 142.241 216.123 142.241 216.88V217.072C142.241 217.808 142.065 218.459 141.713 219.024C141.361 219.579 140.87 220.011 140.241 220.32C139.622 220.629 138.908 220.784 138.097 220.784ZM138.113 219.28C138.86 219.28 139.452 219.077 139.889 218.672C140.337 218.267 140.561 217.723 140.561 217.04V216.912C140.561 216.453 140.46 216.059 140.257 215.728C140.054 215.387 139.766 215.12 139.393 214.928C139.03 214.736 138.604 214.64 138.113 214.64C137.633 214.64 137.206 214.736 136.833 214.928C136.47 215.12 136.188 215.387 135.985 215.728C135.782 216.059 135.681 216.453 135.681 216.912V217.04C135.681 217.723 135.9 218.267 136.337 218.672C136.785 219.077 137.377 219.28 138.113 219.28ZM146.157 220.784C145.784 220.784 145.469 220.661 145.213 220.416C144.968 220.171 144.845 219.856 144.845 219.472C144.845 219.088 144.968 218.779 145.213 218.544C145.469 218.299 145.784 218.176 146.157 218.176C146.531 218.176 146.84 218.299 147.085 218.544C147.341 218.789 147.469 219.099 147.469 219.472C147.469 219.856 147.341 220.171 147.085 220.416C146.84 220.661 146.531 220.784 146.157 220.784ZM154.304 220.784C153.003 220.784 151.963 220.416 151.184 219.68C150.416 218.933 150.032 217.813 150.032 216.32V213.6C150.032 212.139 150.416 211.029 151.184 210.272C151.963 209.515 153.003 209.136 154.304 209.136C155.616 209.136 156.656 209.515 157.424 210.272C158.203 211.029 158.592 212.139 158.592 213.6V216.32C158.592 217.813 158.203 218.933 157.424 219.68C156.656 220.416 155.616 220.784 154.304 220.784ZM154.304 219.28C155.19 219.28 155.846 219.029 156.272 218.528C156.699 218.016 156.912 217.301 156.912 216.384V213.504C156.912 212.587 156.683 211.883 156.224 211.392C155.766 210.891 155.126 210.64 154.304 210.64C153.472 210.64 152.832 210.896 152.384 211.408C151.936 211.909 151.712 212.608 151.712 213.504V216.384C151.712 217.323 151.926 218.043 152.352 218.544C152.79 219.035 153.44 219.28 154.304 219.28ZM164.577 220.56V210.544H164.321L162.481 214.32H160.705L163.185 209.36H166.257V220.56H164.577ZM170.626 220.784C170.253 220.784 169.938 220.661 169.682 220.416C169.437 220.171 169.314 219.856 169.314 219.472C169.314 219.088 169.437 218.779 169.682 218.544C169.938 218.299 170.253 218.176 170.626 218.176C170.999 218.176 171.309 218.299 171.554 218.544C171.81 218.789 171.938 219.099 171.938 219.472C171.938 219.856 171.81 220.171 171.554 220.416C171.309 220.661 170.999 220.784 170.626 220.784ZM174.608 220.56V219.296C174.608 218.517 174.741 217.877 175.008 217.376C175.275 216.875 175.653 216.469 176.144 216.16C176.645 215.84 177.248 215.573 177.952 215.36L178.928 215.056C179.365 214.917 179.739 214.747 180.048 214.544C180.368 214.341 180.613 214.091 180.784 213.792C180.955 213.483 181.04 213.125 181.04 212.72V212.656C181.04 212.027 180.827 211.536 180.4 211.184C179.973 210.821 179.413 210.64 178.72 210.64C178.005 210.64 177.424 210.832 176.976 211.216C176.539 211.6 176.32 212.165 176.32 212.912V213.168H174.656V212.928C174.656 212.117 174.832 211.435 175.184 210.88C175.536 210.315 176.021 209.883 176.64 209.584C177.259 209.285 177.952 209.136 178.72 209.136C179.488 209.136 180.171 209.28 180.768 209.568C181.376 209.856 181.851 210.261 182.192 210.784C182.544 211.307 182.72 211.92 182.72 212.624V212.768C182.72 213.493 182.576 214.096 182.288 214.576C182 215.056 181.6 215.451 181.088 215.76C180.587 216.069 180.005 216.331 179.344 216.544L178.4 216.832C177.899 216.981 177.493 217.147 177.184 217.328C176.885 217.499 176.661 217.707 176.512 217.952C176.373 218.197 176.304 218.512 176.304 218.896V219.056H182.624V220.56H174.608ZM189.554 220.784C188.253 220.784 187.213 220.416 186.434 219.68C185.666 218.933 185.282 217.813 185.282 216.32V213.6C185.282 212.139 185.666 211.029 186.434 210.272C187.213 209.515 188.253 209.136 189.554 209.136C190.866 209.136 191.906 209.515 192.674 210.272C193.453 211.029 193.842 212.139 193.842 213.6V216.32C193.842 217.813 193.453 218.933 192.674 219.68C191.906 220.416 190.866 220.784 189.554 220.784ZM189.554 219.28C190.44 219.28 191.096 219.029 191.522 218.528C191.949 218.016 192.162 217.301 192.162 216.384V213.504C192.162 212.587 191.933 211.883 191.474 211.392C191.016 210.891 190.376 210.64 189.554 210.64C188.722 210.64 188.082 210.896 187.634 211.408C187.186 211.909 186.962 212.608 186.962 213.504V216.384C186.962 217.323 187.176 218.043 187.602 218.544C188.04 219.035 188.69 219.28 189.554 219.28ZM196.483 220.56V219.296C196.483 218.517 196.616 217.877 196.883 217.376C197.15 216.875 197.528 216.469 198.019 216.16C198.52 215.84 199.123 215.573 199.827 215.36L200.803 215.056C201.24 214.917 201.614 214.747 201.923 214.544C202.243 214.341 202.488 214.091 202.659 213.792C202.83 213.483 202.915 213.125 202.915 212.72V212.656C202.915 212.027 202.702 211.536 202.275 211.184C201.848 210.821 201.288 210.64 200.595 210.64C199.88 210.64 199.299 210.832 198.851 211.216C198.414 211.6 198.195 212.165 198.195 212.912V213.168H196.531V212.928C196.531 212.117 196.707 211.435 197.059 210.88C197.411 210.315 197.896 209.883 198.515 209.584C199.134 209.285 199.827 209.136 200.595 209.136C201.363 209.136 202.046 209.28 202.643 209.568C203.251 209.856 203.726 210.261 204.067 210.784C204.419 211.307 204.595 211.92 204.595 212.624V212.768C204.595 213.493 204.451 214.096 204.163 214.576C203.875 215.056 203.475 215.451 202.963 215.76C202.462 216.069 201.88 216.331 201.219 216.544L200.275 216.832C199.774 216.981 199.368 217.147 199.059 217.328C198.76 217.499 198.536 217.707 198.387 217.952C198.248 218.197 198.179 218.512 198.179 218.896V219.056H204.499V220.56H196.483ZM211.253 220.784C210.443 220.784 209.728 220.629 209.109 220.32C208.491 220 208.011 219.557 207.669 218.992C207.328 218.427 207.157 217.771 207.157 217.024V213.152C207.157 212.277 207.328 211.541 207.669 210.944C208.021 210.347 208.512 209.899 209.141 209.6C209.771 209.291 210.501 209.136 211.333 209.136C212.155 209.136 212.864 209.28 213.461 209.568C214.059 209.845 214.517 210.245 214.837 210.768C215.157 211.28 215.317 211.883 215.317 212.576H213.621C213.621 212.021 213.435 211.563 213.061 211.2C212.699 210.827 212.123 210.64 211.333 210.64C210.533 210.64 209.915 210.853 209.477 211.28C209.051 211.696 208.837 212.277 208.837 213.024V214.368H209.093C209.275 214.112 209.568 213.867 209.973 213.632C210.389 213.397 210.976 213.28 211.733 213.28C212.395 213.28 213.003 213.424 213.557 213.712C214.112 214 214.555 214.411 214.885 214.944C215.227 215.477 215.397 216.123 215.397 216.88V217.072C215.397 217.808 215.221 218.459 214.869 219.024C214.517 219.579 214.027 220.011 213.397 220.32C212.779 220.629 212.064 220.784 211.253 220.784ZM211.269 219.28C212.016 219.28 212.608 219.077 213.045 218.672C213.493 218.267 213.717 217.723 213.717 217.04V216.912C213.717 216.453 213.616 216.059 213.413 215.728C213.211 215.387 212.923 215.12 212.549 214.928C212.187 214.736 211.76 214.64 211.269 214.64C210.789 214.64 210.363 214.736 209.989 214.928C209.627 215.12 209.344 215.387 209.141 215.728C208.939 216.059 208.837 216.453 208.837 216.912V217.04C208.837 217.723 209.056 218.267 209.493 218.672C209.941 219.077 210.533 219.28 211.269 219.28ZM222.946 217.216V215.712H227.682V217.216H222.946ZM235.264 220.56V219.296C235.264 218.517 235.397 217.877 235.664 217.376C235.931 216.875 236.309 216.469 236.8 216.16C237.301 215.84 237.904 215.573 238.608 215.36L239.584 215.056C240.021 214.917 240.395 214.747 240.704 214.544C241.024 214.341 241.269 214.091 241.44 213.792C241.611 213.483 241.696 213.125 241.696 212.72V212.656C241.696 212.027 241.483 211.536 241.056 211.184C240.629 210.821 240.069 210.64 239.376 210.64C238.661 210.64 238.08 210.832 237.632 211.216C237.195 211.6 236.976 212.165 236.976 212.912V213.168H235.312V212.928C235.312 212.117 235.488 211.435 235.84 210.88C236.192 210.315 236.677 209.883 237.296 209.584C237.915 209.285 238.608 209.136 239.376 209.136C240.144 209.136 240.827 209.28 241.424 209.568C242.032 209.856 242.507 210.261 242.848 210.784C243.2 211.307 243.376 211.92 243.376 212.624V212.768C243.376 213.493 243.232 214.096 242.944 214.576C242.656 215.056 242.256 215.451 241.744 215.76C241.243 216.069 240.661 216.331 240 216.544L239.056 216.832C238.555 216.981 238.149 217.147 237.84 217.328C237.541 217.499 237.317 217.707 237.168 217.952C237.029 218.197 236.96 218.512 236.96 218.896V219.056H243.28V220.56H235.264ZM247.315 220.768L246.291 219.936L255.043 209.152L256.067 209.984L247.315 220.768ZM254.243 220.736C253.453 220.736 252.829 220.517 252.371 220.08C251.912 219.632 251.683 219.029 251.683 218.272V218.176C251.683 217.408 251.912 216.805 252.371 216.368C252.829 215.92 253.453 215.696 254.243 215.696C255.021 215.696 255.645 215.92 256.115 216.368C256.584 216.805 256.819 217.408 256.819 218.176V218.272C256.819 219.029 256.584 219.632 256.115 220.08C255.656 220.517 255.032 220.736 254.243 220.736ZM254.243 219.616C254.627 219.616 254.925 219.499 255.139 219.264C255.363 219.029 255.475 218.72 255.475 218.336V218.112C255.475 217.717 255.363 217.403 255.139 217.168C254.925 216.933 254.627 216.816 254.243 216.816C253.869 216.816 253.571 216.933 253.347 217.168C253.133 217.403 253.027 217.717 253.027 218.112V218.336C253.027 218.72 253.133 219.029 253.347 219.264C253.571 219.499 253.869 219.616 254.243 219.616ZM248.115 214.224C247.325 214.224 246.696 214.005 246.227 213.568C245.768 213.12 245.539 212.517 245.539 211.76V211.648C245.539 210.88 245.768 210.277 246.227 209.84C246.696 209.403 247.325 209.184 248.115 209.184C248.893 209.184 249.512 209.403 249.971 209.84C250.44 210.277 250.675 210.88 250.675 211.648V211.76C250.675 212.517 250.445 213.12 249.987 213.568C249.528 214.005 248.904 214.224 248.115 214.224ZM248.115 213.104C248.488 213.104 248.781 212.987 248.995 212.752C249.219 212.507 249.331 212.192 249.331 211.808V211.584C249.331 211.2 249.219 210.891 248.995 210.656C248.781 210.421 248.488 210.304 248.115 210.304C247.731 210.304 247.427 210.421 247.203 210.656C246.989 210.891 246.883 211.2 246.883 211.584V211.808C246.883 212.192 246.989 212.507 247.203 212.752C247.427 212.987 247.731 213.104 248.115 213.104Z" fill="white"/>
<path d="M128.194 169.369C126.893 169.369 125.853 169.001 125.074 168.265C124.306 167.518 123.922 166.398 123.922 164.905V162.185C123.922 160.723 124.306 159.614 125.074 158.857C125.853 158.099 126.893 157.721 128.194 157.721C129.506 157.721 130.546 158.099 131.314 158.857C132.093 159.614 132.482 160.723 132.482 162.185V164.905C132.482 166.398 132.093 167.518 131.314 168.265C130.546 169.001 129.506 169.369 128.194 169.369ZM128.194 167.865C129.079 167.865 129.735 167.614 130.162 167.113C130.589 166.601 130.802 165.886 130.802 164.969V162.089C130.802 161.171 130.573 160.467 130.114 159.977C129.655 159.475 129.015 159.225 128.194 159.225C127.362 159.225 126.722 159.481 126.274 159.993C125.826 160.494 125.602 161.193 125.602 162.089V164.969C125.602 165.907 125.815 166.627 126.242 167.129C126.679 167.619 127.33 167.865 128.194 167.865ZM138.466 169.145V159.129H138.21L136.37 162.905H134.594L137.074 157.945H140.146V169.145H138.466ZM144.516 169.369C144.142 169.369 143.828 169.246 143.572 169.001C143.326 168.755 143.204 168.441 143.204 168.057C143.204 167.673 143.326 167.363 143.572 167.129C143.828 166.883 144.142 166.761 144.516 166.761C144.889 166.761 145.198 166.883 145.444 167.129C145.7 167.374 145.828 167.683 145.828 168.057C145.828 168.441 145.7 168.755 145.444 169.001C145.198 169.246 144.889 169.369 144.516 169.369ZM152.663 169.369C151.361 169.369 150.321 169.001 149.543 168.265C148.775 167.518 148.391 166.398 148.391 164.905V162.185C148.391 160.723 148.775 159.614 149.543 158.857C150.321 158.099 151.361 157.721 152.663 157.721C153.975 157.721 155.015 158.099 155.783 158.857C156.561 159.614 156.951 160.723 156.951 162.185V164.905C156.951 166.398 156.561 167.518 155.783 168.265C155.015 169.001 153.975 169.369 152.663 169.369ZM152.663 167.865C153.548 167.865 154.204 167.614 154.631 167.113C155.057 166.601 155.271 165.886 155.271 164.969V162.089C155.271 161.171 155.041 160.467 154.583 159.977C154.124 159.475 153.484 159.225 152.663 159.225C151.831 159.225 151.191 159.481 150.743 159.993C150.295 160.494 150.071 161.193 150.071 162.089V164.969C150.071 165.907 150.284 166.627 150.711 167.129C151.148 167.619 151.799 167.865 152.663 167.865ZM162.935 169.145V159.129H162.679L160.839 162.905H159.063L161.543 157.945H164.615V169.145H162.935ZM168.984 169.369C168.611 169.369 168.296 169.246 168.04 169.001C167.795 168.755 167.672 168.441 167.672 168.057C167.672 167.673 167.795 167.363 168.04 167.129C168.296 166.883 168.611 166.761 168.984 166.761C169.358 166.761 169.667 166.883 169.912 167.129C170.168 167.374 170.296 167.683 170.296 168.057C170.296 168.441 170.168 168.755 169.912 169.001C169.667 169.246 169.358 169.369 168.984 169.369ZM172.966 169.145V167.881C172.966 167.102 173.1 166.462 173.366 165.961C173.633 165.459 174.012 165.054 174.502 164.745C175.004 164.425 175.606 164.158 176.31 163.945L177.286 163.641C177.724 163.502 178.097 163.331 178.406 163.129C178.726 162.926 178.972 162.675 179.142 162.377C179.313 162.067 179.398 161.71 179.398 161.305V161.241C179.398 160.611 179.185 160.121 178.758 159.769C178.332 159.406 177.772 159.225 177.078 159.225C176.364 159.225 175.782 159.417 175.334 159.801C174.897 160.185 174.678 160.75 174.678 161.497V161.753H173.014V161.513C173.014 160.702 173.19 160.019 173.542 159.465C173.894 158.899 174.38 158.467 174.998 158.169C175.617 157.87 176.31 157.721 177.078 157.721C177.846 157.721 178.529 157.865 179.126 158.153C179.734 158.441 180.209 158.846 180.55 159.369C180.902 159.891 181.078 160.505 181.078 161.209V161.353C181.078 162.078 180.934 162.681 180.646 163.161C180.358 163.641 179.958 164.035 179.446 164.345C178.945 164.654 178.364 164.915 177.702 165.129L176.758 165.417C176.257 165.566 175.852 165.731 175.542 165.913C175.244 166.083 175.02 166.291 174.87 166.537C174.732 166.782 174.662 167.097 174.662 167.481V167.641H180.982V169.145H172.966ZM187.913 169.369C186.611 169.369 185.571 169.001 184.793 168.265C184.025 167.518 183.641 166.398 183.641 164.905V162.185C183.641 160.723 184.025 159.614 184.793 158.857C185.571 158.099 186.611 157.721 187.913 157.721C189.225 157.721 190.265 158.099 191.033 158.857C191.811 159.614 192.201 160.723 192.201 162.185V164.905C192.201 166.398 191.811 167.518 191.033 168.265C190.265 169.001 189.225 169.369 187.913 169.369ZM187.913 167.865C188.798 167.865 189.454 167.614 189.881 167.113C190.307 166.601 190.521 165.886 190.521 164.969V162.089C190.521 161.171 190.291 160.467 189.833 159.977C189.374 159.475 188.734 159.225 187.913 159.225C187.081 159.225 186.441 159.481 185.993 159.993C185.545 160.494 185.321 161.193 185.321 162.089V164.969C185.321 165.907 185.534 166.627 185.961 167.129C186.398 167.619 187.049 167.865 187.913 167.865ZM194.841 169.145V167.881C194.841 167.102 194.975 166.462 195.241 165.961C195.508 165.459 195.887 165.054 196.377 164.745C196.879 164.425 197.481 164.158 198.185 163.945L199.161 163.641C199.599 163.502 199.972 163.331 200.281 163.129C200.601 162.926 200.847 162.675 201.017 162.377C201.188 162.067 201.273 161.71 201.273 161.305V161.241C201.273 160.611 201.06 160.121 200.633 159.769C200.207 159.406 199.647 159.225 198.953 159.225C198.239 159.225 197.657 159.417 197.209 159.801C196.772 160.185 196.553 160.75 196.553 161.497V161.753H194.889V161.513C194.889 160.702 195.065 160.019 195.417 159.465C195.769 158.899 196.255 158.467 196.873 158.169C197.492 157.87 198.185 157.721 198.953 157.721C199.721 157.721 200.404 157.865 201.001 158.153C201.609 158.441 202.084 158.846 202.425 159.369C202.777 159.891 202.953 160.505 202.953 161.209V161.353C202.953 162.078 202.809 162.681 202.521 163.161C202.233 163.641 201.833 164.035 201.321 164.345C200.82 164.654 200.239 164.915 199.577 165.129L198.633 165.417C198.132 165.566 197.727 165.731 197.417 165.913C197.119 166.083 196.895 166.291 196.745 166.537C196.607 166.782 196.537 167.097 196.537 167.481V167.641H202.857V169.145H194.841ZM209.612 169.369C208.801 169.369 208.086 169.214 207.468 168.905C206.849 168.585 206.369 168.142 206.028 167.577C205.686 167.011 205.516 166.355 205.516 165.609V161.737C205.516 160.862 205.686 160.126 206.028 159.529C206.38 158.931 206.87 158.483 207.5 158.185C208.129 157.875 208.86 157.721 209.692 157.721C210.513 157.721 211.222 157.865 211.82 158.153C212.417 158.43 212.876 158.83 213.196 159.353C213.516 159.865 213.676 160.467 213.676 161.161H211.98C211.98 160.606 211.793 160.147 211.42 159.785C211.057 159.411 210.481 159.225 209.692 159.225C208.892 159.225 208.273 159.438 207.836 159.865C207.409 160.281 207.196 160.862 207.196 161.609V162.953H207.452C207.633 162.697 207.926 162.451 208.332 162.217C208.748 161.982 209.334 161.865 210.092 161.865C210.753 161.865 211.361 162.009 211.916 162.297C212.47 162.585 212.913 162.995 213.244 163.529C213.585 164.062 213.756 164.707 213.756 165.465V165.657C213.756 166.393 213.58 167.043 213.228 167.609C212.876 168.163 212.385 168.595 211.756 168.905C211.137 169.214 210.422 169.369 209.612 169.369ZM209.628 167.865C210.374 167.865 210.966 167.662 211.404 167.257C211.852 166.851 212.076 166.307 212.076 165.625V165.497C212.076 165.038 211.974 164.643 211.772 164.313C211.569 163.971 211.281 163.705 210.908 163.513C210.545 163.321 210.118 163.225 209.628 163.225C209.148 163.225 208.721 163.321 208.348 163.513C207.985 163.705 207.702 163.971 207.5 164.313C207.297 164.643 207.196 165.038 207.196 165.497V165.625C207.196 166.307 207.414 166.851 207.852 167.257C208.3 167.662 208.892 167.865 209.628 167.865ZM221.304 165.801V164.297H226.04V165.801H221.304ZM237.718 169.369C236.897 169.369 236.166 169.219 235.526 168.921C234.886 168.622 234.385 168.19 234.022 167.625C233.67 167.059 233.494 166.387 233.494 165.609V165.321H235.174V165.577C235.174 166.281 235.404 166.841 235.862 167.257C236.332 167.662 236.95 167.865 237.718 167.865C238.486 167.865 239.084 167.673 239.51 167.289C239.937 166.905 240.15 166.419 240.15 165.833V165.689C240.15 165.273 240.049 164.937 239.846 164.681C239.644 164.425 239.372 164.238 239.03 164.121C238.689 163.993 238.305 163.929 237.878 163.929H235.846V161.993L239.782 159.673V159.449H233.766V157.945H241.606V160.217L237.846 162.457V162.681H238.534C239.1 162.681 239.633 162.787 240.134 163.001C240.636 163.214 241.041 163.539 241.35 163.977C241.67 164.414 241.83 164.969 241.83 165.641V165.833C241.83 166.547 241.66 167.171 241.318 167.705C240.977 168.227 240.497 168.638 239.878 168.937C239.26 169.225 238.54 169.369 237.718 169.369ZM245.814 169.353L244.79 168.521L253.542 157.737L254.566 158.569L245.814 169.353ZM252.742 169.321C251.952 169.321 251.328 169.102 250.87 168.665C250.411 168.217 250.182 167.614 250.182 166.857V166.761C250.182 165.993 250.411 165.39 250.87 164.953C251.328 164.505 251.952 164.281 252.742 164.281C253.52 164.281 254.144 164.505 254.614 164.953C255.083 165.39 255.318 165.993 255.318 166.761V166.857C255.318 167.614 255.083 168.217 254.614 168.665C254.155 169.102 253.531 169.321 252.742 169.321ZM252.742 168.201C253.126 168.201 253.424 168.083 253.638 167.849C253.862 167.614 253.974 167.305 253.974 166.921V166.697C253.974 166.302 253.862 165.987 253.638 165.753C253.424 165.518 253.126 165.401 252.742 165.401C252.368 165.401 252.07 165.518 251.846 165.753C251.632 165.987 251.526 166.302 251.526 166.697V166.921C251.526 167.305 251.632 167.614 251.846 167.849C252.07 168.083 252.368 168.201 252.742 168.201ZM246.614 162.809C245.824 162.809 245.195 162.59 244.726 162.153C244.267 161.705 244.038 161.102 244.038 160.345V160.233C244.038 159.465 244.267 158.862 244.726 158.425C245.195 157.987 245.824 157.769 246.614 157.769C247.392 157.769 248.011 157.987 248.47 158.425C248.939 158.862 249.174 159.465 249.174 160.233V160.345C249.174 161.102 248.944 161.705 248.486 162.153C248.027 162.59 247.403 162.809 246.614 162.809ZM246.614 161.689C246.987 161.689 247.28 161.571 247.494 161.337C247.718 161.091 247.83 160.777 247.83 160.393V160.169C247.83 159.785 247.718 159.475 247.494 159.241C247.28 159.006 246.987 158.889 246.614 158.889C246.23 158.889 245.926 159.006 245.702 159.241C245.488 159.475 245.382 159.785 245.382 160.169V160.393C245.382 160.777 245.488 161.091 245.702 161.337C245.926 161.571 246.23 161.689 246.614 161.689Z" fill="white"/>
<path d="M130.819 112V100.8H135.523C136.217 100.8 136.825 100.923 137.347 101.168C137.881 101.403 138.291 101.744 138.579 102.192C138.878 102.64 139.027 103.173 139.027 103.792V103.968C139.027 104.672 138.857 105.237 138.515 105.664C138.185 106.08 137.779 106.373 137.299 106.544V106.8C137.705 106.821 138.03 106.96 138.275 107.216C138.521 107.461 138.643 107.819 138.643 108.288V112H136.899V108.528C136.899 108.24 136.825 108.011 136.675 107.84C136.526 107.669 136.286 107.584 135.955 107.584H132.547V112H130.819ZM132.547 106.016H135.331C135.95 106.016 136.43 105.861 136.771 105.552C137.113 105.232 137.283 104.8 137.283 104.256V104.128C137.283 103.584 137.113 103.157 136.771 102.848C136.441 102.528 135.961 102.368 135.331 102.368H132.547V106.016ZM145.593 112.224C144.793 112.224 144.094 112.059 143.497 111.728C142.899 111.387 142.43 110.912 142.089 110.304C141.758 109.685 141.593 108.971 141.593 108.16V107.968C141.593 107.147 141.758 106.432 142.089 105.824C142.419 105.205 142.878 104.731 143.465 104.4C144.062 104.059 144.75 103.888 145.529 103.888C146.286 103.888 146.947 104.059 147.513 104.4C148.089 104.731 148.537 105.195 148.857 105.792C149.177 106.389 149.337 107.088 149.337 107.888V108.512H143.273C143.294 109.205 143.523 109.76 143.961 110.176C144.409 110.581 144.963 110.784 145.625 110.784C146.243 110.784 146.707 110.645 147.017 110.368C147.337 110.091 147.582 109.771 147.753 109.408L149.113 110.112C148.963 110.411 148.745 110.725 148.457 111.056C148.179 111.387 147.811 111.664 147.353 111.888C146.894 112.112 146.307 112.224 145.593 112.224ZM143.289 107.248H147.657C147.614 106.651 147.401 106.187 147.017 105.856C146.633 105.515 146.131 105.344 145.513 105.344C144.894 105.344 144.387 105.515 143.993 105.856C143.609 106.187 143.374 106.651 143.289 107.248ZM155.552 112.224C154.55 112.224 153.718 112 153.056 111.552C152.395 111.104 151.99 110.427 151.84 109.52L153.376 109.152C153.462 109.589 153.606 109.936 153.808 110.192C154.011 110.448 154.262 110.629 154.56 110.736C154.87 110.843 155.2 110.896 155.552 110.896C156.075 110.896 156.475 110.795 156.752 110.592C157.04 110.389 157.184 110.128 157.184 109.808C157.184 109.488 157.051 109.253 156.784 109.104C156.518 108.955 156.123 108.832 155.6 108.736L155.056 108.64C154.523 108.544 154.038 108.405 153.6 108.224C153.163 108.043 152.816 107.792 152.56 107.472C152.304 107.152 152.176 106.741 152.176 106.24C152.176 105.493 152.454 104.917 153.008 104.512C153.563 104.096 154.299 103.888 155.216 103.888C156.102 103.888 156.827 104.091 157.392 104.496C157.968 104.891 158.342 105.429 158.512 106.112L156.976 106.544C156.88 106.064 156.678 105.728 156.368 105.536C156.059 105.333 155.675 105.232 155.216 105.232C154.768 105.232 154.416 105.317 154.16 105.488C153.904 105.648 153.776 105.877 153.776 106.176C153.776 106.496 153.899 106.731 154.144 106.88C154.4 107.029 154.742 107.141 155.168 107.216L155.728 107.312C156.294 107.408 156.811 107.541 157.28 107.712C157.75 107.883 158.118 108.128 158.384 108.448C158.662 108.768 158.8 109.195 158.8 109.728C158.8 110.517 158.507 111.131 157.92 111.568C157.334 112.005 156.544 112.224 155.552 112.224ZM161.727 112V104.112H163.375V112H161.727ZM162.559 103.04C162.239 103.04 161.967 102.939 161.743 102.736C161.529 102.523 161.423 102.251 161.423 101.92C161.423 101.589 161.529 101.323 161.743 101.12C161.967 100.907 162.239 100.8 162.559 100.8C162.889 100.8 163.161 100.907 163.375 101.12C163.588 101.323 163.695 101.589 163.695 101.92C163.695 102.251 163.588 102.523 163.375 102.736C163.161 102.939 162.889 103.04 162.559 103.04ZM170.084 112.224C169.434 112.224 168.831 112.064 168.276 111.744C167.722 111.424 167.274 110.965 166.932 110.368C166.602 109.76 166.436 109.029 166.436 108.176V107.936C166.436 107.093 166.602 106.368 166.932 105.76C167.263 105.152 167.706 104.688 168.26 104.368C168.815 104.048 169.423 103.888 170.084 103.888C170.596 103.888 171.023 103.952 171.364 104.08C171.716 104.208 172.004 104.373 172.228 104.576C172.452 104.768 172.623 104.971 172.74 105.184H172.996V100.8H174.644V112H173.028V110.88H172.772C172.57 111.221 172.26 111.531 171.844 111.808C171.439 112.085 170.852 112.224 170.084 112.224ZM170.548 110.784C171.263 110.784 171.85 110.555 172.308 110.096C172.778 109.637 173.012 108.981 173.012 108.128V107.984C173.012 107.141 172.783 106.491 172.324 106.032C171.866 105.573 171.274 105.344 170.548 105.344C169.844 105.344 169.258 105.573 168.788 106.032C168.33 106.491 168.1 107.141 168.1 107.984V108.128C168.1 108.981 168.33 109.637 168.788 110.096C169.258 110.555 169.844 110.784 170.548 110.784ZM181.094 112.144C180.497 112.144 179.964 112.011 179.494 111.744C179.025 111.477 178.657 111.099 178.39 110.608C178.124 110.117 177.99 109.531 177.99 108.848V104.112H179.638V108.736C179.638 109.419 179.809 109.925 180.15 110.256C180.492 110.576 180.966 110.736 181.574 110.736C182.246 110.736 182.785 110.512 183.19 110.064C183.606 109.605 183.814 108.949 183.814 108.096V104.112H185.462V112H183.846V110.816H183.59C183.441 111.136 183.174 111.44 182.79 111.728C182.406 112.005 181.841 112.144 181.094 112.144ZM192.515 112.224C191.715 112.224 191.016 112.059 190.419 111.728C189.821 111.387 189.352 110.912 189.011 110.304C188.68 109.685 188.515 108.971 188.515 108.16V107.968C188.515 107.147 188.68 106.432 189.011 105.824C189.341 105.205 189.8 104.731 190.387 104.4C190.984 104.059 191.672 103.888 192.451 103.888C193.208 103.888 193.869 104.059 194.435 104.4C195.011 104.731 195.459 105.195 195.779 105.792C196.099 106.389 196.259 107.088 196.259 107.888V108.512H190.195C190.216 109.205 190.445 109.76 190.883 110.176C191.331 110.581 191.885 110.784 192.547 110.784C193.165 110.784 193.629 110.645 193.939 110.368C194.259 110.091 194.504 109.771 194.675 109.408L196.035 110.112C195.885 110.411 195.667 110.725 195.379 111.056C195.101 111.387 194.733 111.664 194.275 111.888C193.816 112.112 193.229 112.224 192.515 112.224ZM190.211 107.248H194.579C194.536 106.651 194.323 106.187 193.939 105.856C193.555 105.515 193.053 105.344 192.435 105.344C191.816 105.344 191.309 105.515 190.915 105.856C190.531 106.187 190.296 106.651 190.211 107.248ZM203.851 108.656V107.152H208.587V108.656H203.851ZM220.201 112.224C219.369 112.224 218.655 112.085 218.057 111.808C217.46 111.52 217.001 111.12 216.681 110.608C216.361 110.085 216.201 109.477 216.201 108.784H217.913C217.913 109.339 218.095 109.803 218.457 110.176C218.831 110.539 219.412 110.72 220.201 110.72C221.001 110.72 221.615 110.507 222.041 110.08C222.468 109.653 222.681 109.072 222.681 108.336V106.992H222.425C222.244 107.248 221.951 107.493 221.545 107.728C221.14 107.963 220.553 108.08 219.785 108.08C219.135 108.08 218.532 107.936 217.977 107.648C217.423 107.36 216.975 106.949 216.633 106.416C216.303 105.872 216.137 105.227 216.137 104.48V104.288C216.137 103.541 216.308 102.891 216.649 102.336C217.001 101.781 217.487 101.349 218.105 101.04C218.735 100.731 219.455 100.576 220.265 100.576C221.087 100.576 221.801 100.736 222.409 101.056C223.028 101.365 223.508 101.803 223.849 102.368C224.191 102.923 224.361 103.579 224.361 104.336V108.208C224.361 109.083 224.185 109.819 223.833 110.416C223.492 111.013 223.007 111.467 222.377 111.776C221.759 112.075 221.033 112.224 220.201 112.224ZM220.249 106.72C220.74 106.72 221.167 106.624 221.529 106.432C221.892 106.24 222.175 105.979 222.377 105.648C222.58 105.307 222.681 104.907 222.681 104.448V104.32C222.681 103.627 222.457 103.083 222.009 102.688C221.572 102.283 220.985 102.08 220.249 102.08C219.513 102.08 218.921 102.283 218.473 102.688C218.036 103.083 217.817 103.627 217.817 104.32V104.448C217.817 104.907 217.913 105.307 218.105 105.648C218.308 105.979 218.591 106.24 218.953 106.432C219.327 106.624 219.759 106.72 220.249 106.72ZM231.397 112.224C230.096 112.224 229.056 111.856 228.277 111.12C227.509 110.373 227.125 109.253 227.125 107.76V105.04C227.125 103.579 227.509 102.469 228.277 101.712C229.056 100.955 230.096 100.576 231.397 100.576C232.709 100.576 233.749 100.955 234.517 101.712C235.296 102.469 235.685 103.579 235.685 105.04V107.76C235.685 109.253 235.296 110.373 234.517 111.12C233.749 111.856 232.709 112.224 231.397 112.224ZM231.397 110.72C232.282 110.72 232.938 110.469 233.365 109.968C233.792 109.456 234.005 108.741 234.005 107.824V104.944C234.005 104.027 233.776 103.323 233.317 102.832C232.858 102.331 232.218 102.08 231.397 102.08C230.565 102.08 229.925 102.336 229.477 102.848C229.029 103.349 228.805 104.048 228.805 104.944V107.824C228.805 108.763 229.018 109.483 229.445 109.984C229.882 110.475 230.533 110.72 231.397 110.72ZM239.814 112.208L238.79 111.376L247.542 100.592L248.566 101.424L239.814 112.208ZM246.742 112.176C245.952 112.176 245.328 111.957 244.87 111.52C244.411 111.072 244.182 110.469 244.182 109.712V109.616C244.182 108.848 244.411 108.245 244.87 107.808C245.328 107.36 245.952 107.136 246.742 107.136C247.52 107.136 248.144 107.36 248.614 107.808C249.083 108.245 249.318 108.848 249.318 109.616V109.712C249.318 110.469 249.083 111.072 248.614 111.52C248.155 111.957 247.531 112.176 246.742 112.176ZM246.742 111.056C247.126 111.056 247.424 110.939 247.638 110.704C247.862 110.469 247.974 110.16 247.974 109.776V109.552C247.974 109.157 247.862 108.843 247.638 108.608C247.424 108.373 247.126 108.256 246.742 108.256C246.368 108.256 246.07 108.373 245.846 108.608C245.632 108.843 245.526 109.157 245.526 109.552V109.776C245.526 110.16 245.632 110.469 245.846 110.704C246.07 110.939 246.368 111.056 246.742 111.056ZM240.614 105.664C239.824 105.664 239.195 105.445 238.726 105.008C238.267 104.56 238.038 103.957 238.038 103.2V103.088C238.038 102.32 238.267 101.717 238.726 101.28C239.195 100.843 239.824 100.624 240.614 100.624C241.392 100.624 242.011 100.843 242.47 101.28C242.939 101.717 243.174 102.32 243.174 103.088V103.2C243.174 103.957 242.944 104.56 242.486 105.008C242.027 105.445 241.403 105.664 240.614 105.664ZM240.614 104.544C240.987 104.544 241.28 104.427 241.494 104.192C241.718 103.947 241.83 103.632 241.83 103.248V103.024C241.83 102.64 241.718 102.331 241.494 102.096C241.28 101.861 240.987 101.744 240.614 101.744C240.23 101.744 239.926 101.861 239.702 102.096C239.488 102.331 239.382 102.64 239.382 103.024V103.248C239.382 103.632 239.488 103.947 239.702 104.192C239.926 104.427 240.23 104.544 240.614 104.544Z" fill="white"/>
</svg>
