<svg width="283" height="121" viewBox="0 0 283 121" fill="none" xmlns="http://www.w3.org/2000/svg">
<g clip-path="url(#clip0_19_374)">
<mask id="mask0_19_374" style="mask-type:luminance" maskUnits="userSpaceOnUse" x="10" y="10" width="263" height="101">
<path d="M273 10H10V111H273V10Z" fill="white"/>
</mask>
<g mask="url(#mask0_19_374)">
<path d="M60.3911 111C88.058 111 110.486 88.3904 110.486 60.5C110.486 32.6096 88.058 10 60.3911 10C32.7242 10 10.2959 32.6096 10.2959 60.5C10.2959 88.3904 32.7242 111 60.3911 111Z" fill="#0098EA"/>
<path d="M77.4956 38.1855H43.2846C36.9945 38.1855 33.0078 45.0256 36.1722 50.5552L57.2859 87.4468C58.6637 89.8557 62.1165 89.8557 63.4943 87.4468L84.6123 50.5552C87.7726 45.0344 83.7858 38.1855 77.4999 38.1855H77.4956ZM57.2687 76.3836L52.6705 67.4124L41.5755 47.4085C40.8436 46.1281 41.7476 44.4874 43.2804 44.4874H57.2644V76.3879L57.2687 76.3836ZM79.1961 47.4041L68.1054 67.4168L63.5072 76.3836V44.4831H77.4913C79.024 44.4831 79.9281 46.1238 79.1961 47.4041Z" fill="white"/>
<path d="M142.065 88.3968H153.285V48.9504H168.799V38.2051H126.55V48.9504H142.065V88.3968Z" fill="white"/>
<path d="M195.766 89.2448C209.93 89.2448 221.502 77.5806 221.502 63.3006C221.502 49.0209 209.93 37.3564 195.766 37.3564C181.53 37.3564 170.029 49.0209 170.029 63.3006C170.029 77.5806 181.53 89.2448 195.766 89.2448ZM195.766 78.3581C187.631 78.3581 181.249 71.4302 181.249 63.3006C181.249 55.171 187.631 48.2432 195.766 48.2432C203.829 48.2432 210.211 55.171 210.211 63.3006C210.211 71.4302 203.829 78.3581 195.766 78.3581Z" fill="white"/>
<path d="M272.705 88.3968V38.2051H261.484V69.1684L237.291 38.2051H227.684V88.3968H238.833V57.3628L263.097 88.3968H272.705Z" fill="white"/>
</g>
</g>
<defs>
<clipPath id="clip0_19_374">
<rect width="263" height="101" fill="white" transform="translate(10 10)"/>
</clipPath>
</defs>
</svg>
