<svg width="21" height="21" viewBox="0 0 21 21" fill="none" xmlns="http://www.w3.org/2000/svg">
<g clip-path="url(#clip0_14_114)">
<mask id="mask0_14_114" style="mask-type:luminance" maskUnits="userSpaceOnUse" x="0" y="0" width="53" height="21">
<path d="M52.6641 0.661621H0.164062V20.6616H52.6641V0.661621Z" fill="white"/>
</mask>
<g mask="url(#mask0_14_114)">
<path d="M10.2227 20.6616C15.7455 20.6616 20.2227 16.1845 20.2227 10.6616C20.2227 5.13876 15.7455 0.661621 10.2227 0.661621C4.6998 0.661621 0.222656 5.13876 0.222656 10.6616C0.222656 16.1845 4.6998 20.6616 10.2227 20.6616Z" fill="#0098EA"/>
<path d="M13.6375 6.24292H6.80829C5.55265 6.24292 4.75683 7.59738 5.38851 8.69235L9.60322 15.9976C9.87826 16.4746 10.5675 16.4746 10.8425 15.9976L15.0581 8.69235C15.689 7.59913 14.8931 6.24292 13.6383 6.24292H13.6375ZM9.59979 13.8069L8.6819 12.0304L6.46712 8.06924C6.32101 7.81571 6.50147 7.49081 6.80744 7.49081H9.59894V13.8077L9.59979 13.8069ZM13.9769 8.06838L11.763 12.0313L10.8451 13.8069V7.48996H13.6366C13.9426 7.48996 14.123 7.81485 13.9769 8.06838Z" fill="white"/>
</g>
</g>
<defs>
<clipPath id="clip0_14_114">
<rect width="20" height="20" fill="white" transform="translate(0.164062 0.661621)"/>
</clipPath>
</defs>
</svg>
