<svg width="379" height="379" viewBox="0 0 379 379" fill="none" xmlns="http://www.w3.org/2000/svg">
<path d="M175.822 351.525C141.606 348.681 109.168 335.077 83.1587 312.664L104.385 288.031C125.193 305.962 151.143 316.845 178.516 319.12L175.822 351.525Z" fill="#EE997A"/>
<path d="M312.483 295.603C295.739 315.044 274.631 330.246 250.886 339.966C227.141 349.686 201.433 353.648 175.863 351.529L178.549 319.123C199.005 320.819 219.571 317.649 238.567 309.873C257.563 302.096 274.449 289.935 287.845 274.382L312.483 295.603Z" fill="#DE4E19"/>
<path d="M83.1426 312.65C63.7082 295.898 48.5144 274.785 38.8034 251.036C29.0923 227.288 25.1398 201.578 27.2689 176.009L59.6736 178.707C57.9703 199.162 61.1324 219.73 68.9012 238.729C76.67 257.728 88.8251 274.619 104.373 288.02L83.1426 312.65Z" fill="#C5164E"/>
<path d="M27.2645 176.061C29.3854 150.491 37.5277 125.786 51.0258 103.966C64.5239 82.1466 82.9945 63.831 104.927 50.5173C126.86 37.2036 151.633 29.2698 177.219 27.3646C202.806 25.4594 228.48 29.6368 252.143 39.5553C275.806 49.4738 296.786 64.8518 313.367 84.432C329.947 104.012 341.659 127.239 347.543 152.212C353.428 177.186 353.318 203.197 347.223 228.121C341.129 253.044 329.222 276.171 312.476 295.61L287.84 274.388C301.236 258.836 310.761 240.335 315.637 220.397C320.513 200.458 320.601 179.649 315.893 159.67C311.186 139.691 301.816 121.11 288.552 105.446C275.287 89.7815 258.503 77.4791 239.573 69.5442C220.643 61.6094 200.103 58.2675 179.634 59.7917C159.165 61.3159 139.347 67.6629 121.8 78.3139C104.254 88.9648 89.4776 103.617 78.6791 121.073C67.8807 138.529 61.3668 158.293 59.6701 178.749L27.2645 176.061Z" fill="white"/>
<circle cx="189.006" cy="188.006" r="11.0059" fill="#C5164E"/>
<circle cx="189.006" cy="237.006" r="11.0059" fill="#DE4E19"/>
<circle cx="189.006" cy="290.006" r="11.0059" fill="#EE997A"/>
<circle cx="189.006" cy="136.006" r="11.0059" fill="white"/>
<path d="M129.565 269L132.765 257.8H135.805L138.989 269H137.213L136.477 266.36H132.093L131.357 269H129.565ZM132.525 264.76H136.045L134.413 258.872H134.157L132.525 264.76ZM141.293 269V261.112H142.941V269H141.293ZM142.125 260.04C141.805 260.04 141.533 259.939 141.309 259.736C141.096 259.523 140.989 259.251 140.989 258.92C140.989 258.589 141.096 258.323 141.309 258.12C141.533 257.907 141.805 257.8 142.125 257.8C142.456 257.8 142.728 257.907 142.941 258.12C143.155 258.323 143.261 258.589 143.261 258.92C143.261 259.251 143.155 259.523 142.941 259.736C142.728 259.939 142.456 260.04 142.125 260.04ZM146.126 269V261.112H147.742V262.04H147.998C148.126 261.709 148.328 261.469 148.606 261.32C148.894 261.16 149.246 261.08 149.662 261.08H150.606V262.568H149.598C149.064 262.568 148.627 262.717 148.286 263.016C147.944 263.304 147.774 263.752 147.774 264.36V269H146.126ZM152.588 269V267.464H154.092V259.336H152.588V257.8H157.068C158.561 257.8 159.703 258.179 160.492 258.936C161.292 259.693 161.692 260.835 161.692 262.36V264.456C161.692 265.981 161.292 267.123 160.492 267.88C159.703 268.627 158.561 269 157.068 269H152.588ZM155.836 267.432H157.084C158.055 267.432 158.775 267.187 159.244 266.696C159.713 266.205 159.948 265.475 159.948 264.504V262.296C159.948 261.315 159.713 260.584 159.244 260.104C158.775 259.624 158.055 259.384 157.084 259.384H155.836V267.432ZM164.431 269V261.112H166.047V262.04H166.303C166.431 261.709 166.634 261.469 166.911 261.32C167.199 261.16 167.551 261.08 167.967 261.08H168.911V262.568H167.903C167.37 262.568 166.933 262.717 166.591 263.016C166.25 263.304 166.079 263.752 166.079 264.36V269H164.431ZM174.772 269.224C173.983 269.224 173.279 269.064 172.66 268.744C172.052 268.413 171.572 267.944 171.22 267.336C170.868 266.728 170.692 266.008 170.692 265.176V264.936C170.692 264.104 170.868 263.389 171.22 262.792C171.572 262.184 172.052 261.715 172.66 261.384C173.279 261.053 173.983 260.888 174.772 260.888C175.562 260.888 176.266 261.053 176.884 261.384C177.503 261.715 177.988 262.184 178.34 262.792C178.692 263.389 178.868 264.104 178.868 264.936V265.176C178.868 266.008 178.692 266.728 178.34 267.336C177.988 267.944 177.503 268.413 176.884 268.744C176.266 269.064 175.562 269.224 174.772 269.224ZM174.772 267.752C175.498 267.752 176.084 267.523 176.532 267.064C176.991 266.595 177.22 265.949 177.22 265.128V264.984C177.22 264.163 176.996 263.523 176.548 263.064C176.1 262.595 175.508 262.36 174.772 262.36C174.058 262.36 173.471 262.595 173.012 263.064C172.564 263.523 172.34 264.163 172.34 264.984V265.128C172.34 265.949 172.564 266.595 173.012 267.064C173.471 267.523 174.058 267.752 174.772 267.752ZM181.659 272.2V261.112H183.275V262.248H183.531C183.733 261.896 184.037 261.581 184.443 261.304C184.859 261.027 185.451 260.888 186.219 260.888C186.88 260.888 187.483 261.048 188.027 261.368C188.581 261.688 189.024 262.152 189.355 262.76C189.696 263.357 189.867 264.083 189.867 264.936V265.176C189.867 266.029 189.701 266.76 189.371 267.368C189.04 267.965 188.597 268.424 188.043 268.744C187.488 269.064 186.88 269.224 186.219 269.224C185.707 269.224 185.275 269.16 184.923 269.032C184.571 268.904 184.288 268.744 184.075 268.552C183.861 268.349 183.691 268.141 183.563 267.928H183.307V272.2H181.659ZM185.739 267.784C186.464 267.784 187.056 267.555 187.515 267.096C187.973 266.637 188.203 265.981 188.203 265.128V264.984C188.203 264.141 187.968 263.491 187.499 263.032C187.04 262.573 186.453 262.344 185.739 262.344C185.035 262.344 184.448 262.573 183.979 263.032C183.52 263.491 183.291 264.141 183.291 264.984V265.128C183.291 265.981 183.52 266.637 183.979 267.096C184.448 267.555 185.035 267.784 185.739 267.784ZM196.995 265.656V264.152H201.731V265.656H196.995ZM212.135 269V258.984H211.879L210.039 262.76H208.263L210.743 257.8H213.815V269H212.135ZM220.866 269.224C219.565 269.224 218.525 268.856 217.746 268.12C216.978 267.373 216.594 266.253 216.594 264.76V262.04C216.594 260.579 216.978 259.469 217.746 258.712C218.525 257.955 219.565 257.576 220.866 257.576C222.178 257.576 223.218 257.955 223.986 258.712C224.765 259.469 225.154 260.579 225.154 262.04V264.76C225.154 266.253 224.765 267.373 223.986 268.12C223.218 268.856 222.178 269.224 220.866 269.224ZM220.866 267.72C221.752 267.72 222.408 267.469 222.834 266.968C223.261 266.456 223.474 265.741 223.474 264.824V261.944C223.474 261.027 223.245 260.323 222.786 259.832C222.328 259.331 221.688 259.08 220.866 259.08C220.034 259.08 219.394 259.336 218.946 259.848C218.498 260.349 218.274 261.048 218.274 261.944V264.824C218.274 265.763 218.488 266.483 218.914 266.984C219.352 267.475 220.002 267.72 220.866 267.72ZM229.022 269.208L227.998 268.376L236.75 257.592L237.774 258.424L229.022 269.208ZM235.95 269.176C235.16 269.176 234.536 268.957 234.078 268.52C233.619 268.072 233.39 267.469 233.39 266.712V266.616C233.39 265.848 233.619 265.245 234.078 264.808C234.536 264.36 235.16 264.136 235.95 264.136C236.728 264.136 237.352 264.36 237.822 264.808C238.291 265.245 238.526 265.848 238.526 266.616V266.712C238.526 267.469 238.291 268.072 237.822 268.52C237.363 268.957 236.739 269.176 235.95 269.176ZM235.95 268.056C236.334 268.056 236.632 267.939 236.846 267.704C237.07 267.469 237.182 267.16 237.182 266.776V266.552C237.182 266.157 237.07 265.843 236.846 265.608C236.632 265.373 236.334 265.256 235.95 265.256C235.576 265.256 235.278 265.373 235.054 265.608C234.84 265.843 234.734 266.157 234.734 266.552V266.776C234.734 267.16 234.84 267.469 235.054 267.704C235.278 267.939 235.576 268.056 235.95 268.056ZM229.822 262.664C229.032 262.664 228.403 262.445 227.934 262.008C227.475 261.56 227.246 260.957 227.246 260.2V260.088C227.246 259.32 227.475 258.717 227.934 258.28C228.403 257.843 229.032 257.624 229.822 257.624C230.6 257.624 231.219 257.843 231.678 258.28C232.147 258.717 232.382 259.32 232.382 260.088V260.2C232.382 260.957 232.152 261.56 231.694 262.008C231.235 262.445 230.611 262.664 229.822 262.664ZM229.822 261.544C230.195 261.544 230.488 261.427 230.702 261.192C230.926 260.947 231.038 260.632 231.038 260.248V260.024C231.038 259.64 230.926 259.331 230.702 259.096C230.488 258.861 230.195 258.744 229.822 258.744C229.438 258.744 229.134 258.861 228.91 259.096C228.696 259.331 228.59 259.64 228.59 260.024V260.248C228.59 260.632 228.696 260.947 228.91 261.192C229.134 261.427 229.438 261.544 229.822 261.544Z" fill="white"/>
<path d="M106.12 221V219.464H107.624V211.336H106.12V209.8H110.6C112.093 209.8 113.235 210.179 114.024 210.936C114.824 211.693 115.224 212.835 115.224 214.36V216.456C115.224 217.981 114.824 219.123 114.024 219.88C113.235 220.627 112.093 221 110.6 221H106.12ZM109.368 219.432H110.616C111.587 219.432 112.307 219.187 112.776 218.696C113.245 218.205 113.48 217.475 113.48 216.504V214.296C113.48 213.315 113.245 212.584 112.776 212.104C112.307 211.624 111.587 211.384 110.616 211.384H109.368V219.432ZM121.579 221.224C120.779 221.224 120.081 221.059 119.483 220.728C118.886 220.387 118.417 219.912 118.075 219.304C117.745 218.685 117.579 217.971 117.579 217.16V216.968C117.579 216.147 117.745 215.432 118.075 214.824C118.406 214.205 118.865 213.731 119.451 213.4C120.049 213.059 120.737 212.888 121.515 212.888C122.273 212.888 122.934 213.059 123.499 213.4C124.075 213.731 124.523 214.195 124.843 214.792C125.163 215.389 125.323 216.088 125.323 216.888V217.512H119.259C119.281 218.205 119.51 218.76 119.947 219.176C120.395 219.581 120.95 219.784 121.611 219.784C122.23 219.784 122.694 219.645 123.003 219.368C123.323 219.091 123.569 218.771 123.739 218.408L125.099 219.112C124.95 219.411 124.731 219.725 124.443 220.056C124.166 220.387 123.798 220.664 123.339 220.888C122.881 221.112 122.294 221.224 121.579 221.224ZM119.275 216.248H123.643C123.601 215.651 123.387 215.187 123.003 214.856C122.619 214.515 122.118 214.344 121.499 214.344C120.881 214.344 120.374 214.515 119.979 214.856C119.595 215.187 119.361 215.651 119.275 216.248ZM129.589 221L126.933 213.112H128.677L130.773 219.784H131.029L133.125 213.112H134.869L132.213 221H129.589ZM140.541 221.224C139.741 221.224 139.042 221.059 138.445 220.728C137.848 220.387 137.378 219.912 137.037 219.304C136.706 218.685 136.541 217.971 136.541 217.16V216.968C136.541 216.147 136.706 215.432 137.037 214.824C137.368 214.205 137.826 213.731 138.413 213.4C139.01 213.059 139.698 212.888 140.477 212.888C141.234 212.888 141.896 213.059 142.461 213.4C143.037 213.731 143.485 214.195 143.805 214.792C144.125 215.389 144.285 216.088 144.285 216.888V217.512H138.221C138.242 218.205 138.472 218.76 138.909 219.176C139.357 219.581 139.912 219.784 140.573 219.784C141.192 219.784 141.656 219.645 141.965 219.368C142.285 219.091 142.53 218.771 142.701 218.408L144.061 219.112C143.912 219.411 143.693 219.725 143.405 220.056C143.128 220.387 142.76 220.664 142.301 220.888C141.842 221.112 141.256 221.224 140.541 221.224ZM138.237 216.248H142.605C142.562 215.651 142.349 215.187 141.965 214.856C141.581 214.515 141.08 214.344 140.461 214.344C139.842 214.344 139.336 214.515 138.941 214.856C138.557 215.187 138.322 215.651 138.237 216.248ZM147.008 221V209.8H148.656V221H147.008ZM155.536 221.224C154.747 221.224 154.043 221.064 153.424 220.744C152.816 220.413 152.336 219.944 151.984 219.336C151.632 218.728 151.456 218.008 151.456 217.176V216.936C151.456 216.104 151.632 215.389 151.984 214.792C152.336 214.184 152.816 213.715 153.424 213.384C154.043 213.053 154.747 212.888 155.536 212.888C156.325 212.888 157.029 213.053 157.648 213.384C158.267 213.715 158.752 214.184 159.104 214.792C159.456 215.389 159.632 216.104 159.632 216.936V217.176C159.632 218.008 159.456 218.728 159.104 219.336C158.752 219.944 158.267 220.413 157.648 220.744C157.029 221.064 156.325 221.224 155.536 221.224ZM155.536 219.752C156.261 219.752 156.848 219.523 157.296 219.064C157.755 218.595 157.984 217.949 157.984 217.128V216.984C157.984 216.163 157.76 215.523 157.312 215.064C156.864 214.595 156.272 214.36 155.536 214.36C154.821 214.36 154.235 214.595 153.776 215.064C153.328 215.523 153.104 216.163 153.104 216.984V217.128C153.104 217.949 153.328 218.595 153.776 219.064C154.235 219.523 154.821 219.752 155.536 219.752ZM162.423 224.2V213.112H164.039V214.248H164.295C164.497 213.896 164.801 213.581 165.207 213.304C165.623 213.027 166.215 212.888 166.983 212.888C167.644 212.888 168.247 213.048 168.791 213.368C169.345 213.688 169.788 214.152 170.119 214.76C170.46 215.357 170.631 216.083 170.631 216.936V217.176C170.631 218.029 170.465 218.76 170.135 219.368C169.804 219.965 169.361 220.424 168.807 220.744C168.252 221.064 167.644 221.224 166.983 221.224C166.471 221.224 166.039 221.16 165.687 221.032C165.335 220.904 165.052 220.744 164.839 220.552C164.625 220.349 164.455 220.141 164.327 219.928H164.071V224.2H162.423ZM166.503 219.784C167.228 219.784 167.82 219.555 168.279 219.096C168.737 218.637 168.967 217.981 168.967 217.128V216.984C168.967 216.141 168.732 215.491 168.263 215.032C167.804 214.573 167.217 214.344 166.503 214.344C165.799 214.344 165.212 214.573 164.743 215.032C164.284 215.491 164.055 216.141 164.055 216.984V217.128C164.055 217.981 164.284 218.637 164.743 219.096C165.212 219.555 165.799 219.784 166.503 219.784ZM173.411 221V213.112H175.027V214.04H175.283C175.433 213.763 175.673 213.517 176.003 213.304C176.334 213.091 176.782 212.984 177.347 212.984C177.934 212.984 178.403 213.107 178.755 213.352C179.118 213.587 179.39 213.891 179.571 214.264H179.827C180.009 213.901 180.27 213.597 180.611 213.352C180.963 213.107 181.459 212.984 182.099 212.984C182.611 212.984 183.065 213.091 183.459 213.304C183.854 213.507 184.169 213.816 184.403 214.232C184.638 214.637 184.755 215.144 184.755 215.752V221H183.107V215.88C183.107 215.4 182.974 215.032 182.707 214.776C182.451 214.509 182.083 214.376 181.603 214.376C181.091 214.376 180.681 214.541 180.371 214.872C180.062 215.203 179.907 215.677 179.907 216.296V221H178.259V215.88C178.259 215.4 178.126 215.032 177.859 214.776C177.603 214.509 177.235 214.376 176.755 214.376C176.243 214.376 175.833 214.541 175.523 214.872C175.214 215.203 175.059 215.677 175.059 216.296V221H173.411ZM191.485 221.224C190.685 221.224 189.986 221.059 189.389 220.728C188.791 220.387 188.322 219.912 187.981 219.304C187.65 218.685 187.485 217.971 187.485 217.16V216.968C187.485 216.147 187.65 215.432 187.981 214.824C188.311 214.205 188.77 213.731 189.357 213.4C189.954 213.059 190.642 212.888 191.421 212.888C192.178 212.888 192.839 213.059 193.405 213.4C193.981 213.731 194.429 214.195 194.749 214.792C195.069 215.389 195.229 216.088 195.229 216.888V217.512H189.165C189.186 218.205 189.415 218.76 189.853 219.176C190.301 219.581 190.855 219.784 191.517 219.784C192.135 219.784 192.599 219.645 192.909 219.368C193.229 219.091 193.474 218.771 193.645 218.408L195.005 219.112C194.855 219.411 194.637 219.725 194.349 220.056C194.071 220.387 193.703 220.664 193.245 220.888C192.786 221.112 192.199 221.224 191.485 221.224ZM189.181 216.248H193.549C193.506 215.651 193.293 215.187 192.909 214.856C192.525 214.515 192.023 214.344 191.405 214.344C190.786 214.344 190.279 214.515 189.885 214.856C189.501 215.187 189.266 215.651 189.181 216.248ZM197.951 221V213.112H199.567V214.296H199.823C199.973 213.976 200.239 213.677 200.623 213.4C201.007 213.123 201.578 212.984 202.335 212.984C202.933 212.984 203.461 213.117 203.919 213.384C204.389 213.651 204.757 214.029 205.023 214.52C205.29 215 205.423 215.581 205.423 216.264V221H203.775V216.392C203.775 215.709 203.605 215.208 203.263 214.888C202.922 214.557 202.453 214.392 201.855 214.392C201.173 214.392 200.623 214.616 200.207 215.064C199.802 215.512 199.599 216.163 199.599 217.016V221H197.951ZM211.275 221C210.795 221 210.411 220.856 210.123 220.568C209.846 220.28 209.707 219.896 209.707 219.416V214.504H207.531V213.112H209.707V210.504H211.355V213.112H213.707V214.504H211.355V219.128C211.355 219.448 211.504 219.608 211.803 219.608H213.451V221H211.275ZM220.729 217.656V216.152H225.465V217.656H220.729ZM235.869 221V210.984H235.613L233.773 214.76H231.997L234.477 209.8H237.549V221H235.869ZM244.281 221.224C243.438 221.224 242.707 221.069 242.089 220.76C241.47 220.451 240.99 220.013 240.649 219.448C240.318 218.883 240.153 218.227 240.153 217.48V217.304H241.865V217.464C241.865 218.147 242.073 218.696 242.489 219.112C242.915 219.517 243.507 219.72 244.265 219.72C245.043 219.72 245.646 219.507 246.073 219.08C246.499 218.653 246.713 218.077 246.713 217.352V217.208C246.713 216.515 246.499 215.96 246.073 215.544C245.657 215.128 245.123 214.92 244.473 214.92C244.11 214.92 243.806 214.979 243.561 215.096C243.326 215.203 243.134 215.336 242.985 215.496C242.846 215.656 242.729 215.811 242.633 215.96H240.505V209.8H248.009V211.32H242.185V214.616H242.441C242.547 214.435 242.697 214.264 242.889 214.104C243.091 213.933 243.353 213.795 243.673 213.688C243.993 213.581 244.377 213.528 244.825 213.528C245.486 213.528 246.083 213.672 246.617 213.96C247.161 214.237 247.593 214.653 247.913 215.208C248.233 215.752 248.393 216.413 248.393 217.192V217.368C248.393 218.147 248.227 218.824 247.897 219.4C247.566 219.976 247.091 220.424 246.473 220.744C245.865 221.064 245.134 221.224 244.281 221.224ZM252.022 221.208L250.998 220.376L259.75 209.592L260.774 210.424L252.022 221.208ZM258.95 221.176C258.16 221.176 257.536 220.957 257.078 220.52C256.619 220.072 256.39 219.469 256.39 218.712V218.616C256.39 217.848 256.619 217.245 257.078 216.808C257.536 216.36 258.16 216.136 258.95 216.136C259.728 216.136 260.352 216.36 260.822 216.808C261.291 217.245 261.526 217.848 261.526 218.616V218.712C261.526 219.469 261.291 220.072 260.822 220.52C260.363 220.957 259.739 221.176 258.95 221.176ZM258.95 220.056C259.334 220.056 259.632 219.939 259.846 219.704C260.07 219.469 260.182 219.16 260.182 218.776V218.552C260.182 218.157 260.07 217.843 259.846 217.608C259.632 217.373 259.334 217.256 258.95 217.256C258.576 217.256 258.278 217.373 258.054 217.608C257.84 217.843 257.734 218.157 257.734 218.552V218.776C257.734 219.16 257.84 219.469 258.054 219.704C258.278 219.939 258.576 220.056 258.95 220.056ZM252.822 214.664C252.032 214.664 251.403 214.445 250.934 214.008C250.475 213.56 250.246 212.957 250.246 212.2V212.088C250.246 211.32 250.475 210.717 250.934 210.28C251.403 209.843 252.032 209.624 252.822 209.624C253.6 209.624 254.219 209.843 254.678 210.28C255.147 210.717 255.382 211.32 255.382 212.088V212.2C255.382 212.957 255.152 213.56 254.694 214.008C254.235 214.445 253.611 214.664 252.822 214.664ZM252.822 213.544C253.195 213.544 253.488 213.427 253.702 213.192C253.926 212.947 254.038 212.632 254.038 212.248V212.024C254.038 211.64 253.926 211.331 253.702 211.096C253.488 210.861 253.195 210.744 252.822 210.744C252.438 210.744 252.134 210.861 251.91 211.096C251.696 211.331 251.59 211.64 251.59 212.024V212.248C251.59 212.632 251.696 212.947 251.91 213.192C252.134 213.427 252.438 213.544 252.822 213.544Z" fill="white"/>
<path d="M126.018 169V157.8H130.466C131.148 157.8 131.756 157.939 132.29 158.216C132.834 158.483 133.255 158.867 133.554 159.368C133.863 159.859 134.018 160.451 134.018 161.144V161.352C134.018 162.045 133.858 162.643 133.538 163.144C133.228 163.645 132.807 164.029 132.274 164.296C131.74 164.563 131.138 164.696 130.466 164.696H127.746V169H126.018ZM127.746 163.128H130.29C130.898 163.128 131.383 162.968 131.746 162.648C132.108 162.328 132.29 161.891 132.29 161.336V161.176C132.29 160.611 132.108 160.168 131.746 159.848C131.383 159.528 130.898 159.368 130.29 159.368H127.746V163.128ZM136.445 169V161.112H138.061V162.04H138.317C138.445 161.709 138.648 161.469 138.925 161.32C139.213 161.16 139.565 161.08 139.981 161.08H140.925V162.568H139.917C139.384 162.568 138.946 162.717 138.605 163.016C138.264 163.304 138.093 163.752 138.093 164.36V169H136.445ZM146.706 169.224C145.906 169.224 145.207 169.059 144.61 168.728C144.013 168.387 143.543 167.912 143.202 167.304C142.871 166.685 142.706 165.971 142.706 165.16V164.968C142.706 164.147 142.871 163.432 143.202 162.824C143.533 162.205 143.991 161.731 144.578 161.4C145.175 161.059 145.863 160.888 146.642 160.888C147.399 160.888 148.061 161.059 148.626 161.4C149.202 161.731 149.65 162.195 149.97 162.792C150.29 163.389 150.45 164.088 150.45 164.888V165.512H144.386C144.407 166.205 144.637 166.76 145.074 167.176C145.522 167.581 146.077 167.784 146.738 167.784C147.357 167.784 147.821 167.645 148.13 167.368C148.45 167.091 148.695 166.771 148.866 166.408L150.226 167.112C150.077 167.411 149.858 167.725 149.57 168.056C149.293 168.387 148.925 168.664 148.466 168.888C148.007 169.112 147.421 169.224 146.706 169.224ZM144.402 164.248H148.77C148.727 163.651 148.514 163.187 148.13 162.856C147.746 162.515 147.245 162.344 146.626 162.344C146.007 162.344 145.501 162.515 145.106 162.856C144.722 163.187 144.487 163.651 144.402 164.248ZM153.141 165.656V164.152H157.877V165.656H153.141ZM164.765 169.224C163.922 169.224 163.176 169.075 162.525 168.776C161.874 168.477 161.362 168.04 160.989 167.464C160.626 166.877 160.445 166.168 160.445 165.336V164.936H162.157V165.336C162.157 166.125 162.392 166.717 162.861 167.112C163.341 167.507 163.976 167.704 164.765 167.704C165.565 167.704 166.168 167.539 166.573 167.208C166.978 166.867 167.181 166.429 167.181 165.896C167.181 165.544 167.085 165.256 166.893 165.032C166.701 164.808 166.429 164.632 166.077 164.504C165.725 164.365 165.304 164.237 164.813 164.12L164.221 163.976C163.506 163.805 162.882 163.597 162.349 163.352C161.826 163.096 161.421 162.76 161.133 162.344C160.845 161.928 160.701 161.395 160.701 160.744C160.701 160.083 160.861 159.517 161.181 159.048C161.512 158.579 161.965 158.216 162.541 157.96C163.117 157.704 163.794 157.576 164.573 157.576C165.352 157.576 166.045 157.709 166.653 157.976C167.272 158.243 167.757 158.637 168.109 159.16C168.461 159.683 168.637 160.339 168.637 161.128V161.704H166.925V161.128C166.925 160.648 166.824 160.259 166.621 159.96C166.429 159.661 166.157 159.443 165.805 159.304C165.453 159.165 165.042 159.096 164.573 159.096C163.89 159.096 163.357 159.24 162.973 159.528C162.6 159.805 162.413 160.195 162.413 160.696C162.413 161.037 162.493 161.32 162.653 161.544C162.824 161.757 163.069 161.933 163.389 162.072C163.709 162.211 164.109 162.333 164.589 162.44L165.181 162.584C165.906 162.744 166.546 162.952 167.101 163.208C167.656 163.453 168.093 163.789 168.413 164.216C168.733 164.643 168.893 165.192 168.893 165.864C168.893 166.536 168.722 167.123 168.381 167.624C168.05 168.125 167.576 168.52 166.957 168.808C166.338 169.085 165.608 169.224 164.765 169.224ZM173.942 169.224C173.376 169.224 172.87 169.128 172.422 168.936C171.984 168.744 171.632 168.461 171.366 168.088C171.11 167.715 170.982 167.261 170.982 166.728C170.982 166.184 171.11 165.736 171.366 165.384C171.632 165.021 171.99 164.749 172.438 164.568C172.896 164.387 173.414 164.296 173.99 164.296H176.39V163.784C176.39 163.325 176.251 162.957 175.974 162.68C175.696 162.403 175.27 162.264 174.694 162.264C174.128 162.264 173.696 162.397 173.398 162.664C173.099 162.931 172.902 163.277 172.806 163.704L171.27 163.208C171.398 162.781 171.6 162.397 171.878 162.056C172.166 161.704 172.544 161.421 173.014 161.208C173.483 160.995 174.048 160.888 174.71 160.888C175.734 160.888 176.539 161.149 177.126 161.672C177.712 162.195 178.006 162.936 178.006 163.896V167.144C178.006 167.464 178.155 167.624 178.454 167.624H179.126V169H177.894C177.52 169 177.216 168.904 176.982 168.712C176.747 168.52 176.63 168.259 176.63 167.928V167.88H176.39C176.304 168.04 176.176 168.227 176.006 168.44C175.835 168.653 175.584 168.84 175.254 169C174.923 169.149 174.486 169.224 173.942 169.224ZM174.182 167.864C174.843 167.864 175.376 167.677 175.782 167.304C176.187 166.92 176.39 166.397 176.39 165.736V165.576H174.086C173.648 165.576 173.296 165.672 173.03 165.864C172.763 166.045 172.63 166.317 172.63 166.68C172.63 167.043 172.768 167.331 173.046 167.544C173.323 167.757 173.702 167.864 174.182 167.864ZM181.467 169V157.8H183.115V169H181.467ZM189.915 169.224C189.115 169.224 188.417 169.059 187.819 168.728C187.222 168.387 186.753 167.912 186.411 167.304C186.081 166.685 185.915 165.971 185.915 165.16V164.968C185.915 164.147 186.081 163.432 186.411 162.824C186.742 162.205 187.201 161.731 187.787 161.4C188.385 161.059 189.073 160.888 189.851 160.888C190.609 160.888 191.27 161.059 191.835 161.4C192.411 161.731 192.859 162.195 193.179 162.792C193.499 163.389 193.659 164.088 193.659 164.888V165.512H187.595C187.617 166.205 187.846 166.76 188.283 167.176C188.731 167.581 189.286 167.784 189.947 167.784C190.566 167.784 191.03 167.645 191.339 167.368C191.659 167.091 191.905 166.771 192.075 166.408L193.435 167.112C193.286 167.411 193.067 167.725 192.779 168.056C192.502 168.387 192.134 168.664 191.675 168.888C191.217 169.112 190.63 169.224 189.915 169.224ZM187.611 164.248H191.979C191.937 163.651 191.723 163.187 191.339 162.856C190.955 162.515 190.454 162.344 189.835 162.344C189.217 162.344 188.71 162.515 188.315 162.856C187.931 163.187 187.697 163.651 187.611 164.248ZM200.729 165.656V164.152H205.465V165.656H200.729ZM215.869 169V158.984H215.613L213.773 162.76H211.997L214.477 157.8H217.549V169H215.869ZM224.281 169.224C223.438 169.224 222.707 169.069 222.089 168.76C221.47 168.451 220.99 168.013 220.649 167.448C220.318 166.883 220.153 166.227 220.153 165.48V165.304H221.865V165.464C221.865 166.147 222.073 166.696 222.489 167.112C222.915 167.517 223.507 167.72 224.265 167.72C225.043 167.72 225.646 167.507 226.073 167.08C226.499 166.653 226.713 166.077 226.713 165.352V165.208C226.713 164.515 226.499 163.96 226.073 163.544C225.657 163.128 225.123 162.92 224.473 162.92C224.11 162.92 223.806 162.979 223.561 163.096C223.326 163.203 223.134 163.336 222.985 163.496C222.846 163.656 222.729 163.811 222.633 163.96H220.505V157.8H228.009V159.32H222.185V162.616H222.441C222.547 162.435 222.697 162.264 222.889 162.104C223.091 161.933 223.353 161.795 223.673 161.688C223.993 161.581 224.377 161.528 224.825 161.528C225.486 161.528 226.083 161.672 226.617 161.96C227.161 162.237 227.593 162.653 227.913 163.208C228.233 163.752 228.393 164.413 228.393 165.192V165.368C228.393 166.147 228.227 166.824 227.897 167.4C227.566 167.976 227.091 168.424 226.473 168.744C225.865 169.064 225.134 169.224 224.281 169.224ZM232.022 169.208L230.998 168.376L239.75 157.592L240.774 158.424L232.022 169.208ZM238.95 169.176C238.16 169.176 237.536 168.957 237.078 168.52C236.619 168.072 236.39 167.469 236.39 166.712V166.616C236.39 165.848 236.619 165.245 237.078 164.808C237.536 164.36 238.16 164.136 238.95 164.136C239.728 164.136 240.352 164.36 240.822 164.808C241.291 165.245 241.526 165.848 241.526 166.616V166.712C241.526 167.469 241.291 168.072 240.822 168.52C240.363 168.957 239.739 169.176 238.95 169.176ZM238.95 168.056C239.334 168.056 239.632 167.939 239.846 167.704C240.07 167.469 240.182 167.16 240.182 166.776V166.552C240.182 166.157 240.07 165.843 239.846 165.608C239.632 165.373 239.334 165.256 238.95 165.256C238.576 165.256 238.278 165.373 238.054 165.608C237.84 165.843 237.734 166.157 237.734 166.552V166.776C237.734 167.16 237.84 167.469 238.054 167.704C238.278 167.939 238.576 168.056 238.95 168.056ZM232.822 162.664C232.032 162.664 231.403 162.445 230.934 162.008C230.475 161.56 230.246 160.957 230.246 160.2V160.088C230.246 159.32 230.475 158.717 230.934 158.28C231.403 157.843 232.032 157.624 232.822 157.624C233.6 157.624 234.219 157.843 234.678 158.28C235.147 158.717 235.382 159.32 235.382 160.088V160.2C235.382 160.957 235.152 161.56 234.694 162.008C234.235 162.445 233.611 162.664 232.822 162.664ZM232.822 161.544C233.195 161.544 233.488 161.427 233.702 161.192C233.926 160.947 234.038 160.632 234.038 160.248V160.024C234.038 159.64 233.926 159.331 233.702 159.096C233.488 158.861 233.195 158.744 232.822 158.744C232.438 158.744 232.134 158.861 231.91 159.096C231.696 159.331 231.59 159.64 231.59 160.024V160.248C231.59 160.632 231.696 160.947 231.91 161.192C232.134 161.427 232.438 161.544 232.822 161.544Z" fill="white"/>
<path d="M130.006 110V98.8H131.734V108.432H137.126V110H130.006ZM139.496 110V102.112H141.144V110H139.496ZM140.328 101.04C140.008 101.04 139.736 100.939 139.512 100.736C139.299 100.523 139.192 100.251 139.192 99.92C139.192 99.5893 139.299 99.3227 139.512 99.12C139.736 98.9067 140.008 98.8 140.328 98.8C140.659 98.8 140.931 98.9067 141.144 99.12C141.358 99.3227 141.464 99.5893 141.464 99.92C141.464 100.251 141.358 100.523 141.144 100.736C140.931 100.939 140.659 101.04 140.328 101.04ZM147.561 110.224C146.558 110.224 145.726 110 145.065 109.552C144.403 109.104 143.998 108.427 143.849 107.52L145.385 107.152C145.47 107.589 145.614 107.936 145.817 108.192C146.019 108.448 146.27 108.629 146.569 108.736C146.878 108.843 147.209 108.896 147.561 108.896C148.083 108.896 148.483 108.795 148.761 108.592C149.049 108.389 149.193 108.128 149.193 107.808C149.193 107.488 149.059 107.253 148.793 107.104C148.526 106.955 148.131 106.832 147.609 106.736L147.065 106.64C146.531 106.544 146.046 106.405 145.609 106.224C145.171 106.043 144.825 105.792 144.569 105.472C144.313 105.152 144.185 104.741 144.185 104.24C144.185 103.493 144.462 102.917 145.017 102.512C145.571 102.096 146.307 101.888 147.225 101.888C148.11 101.888 148.835 102.091 149.401 102.496C149.977 102.891 150.35 103.429 150.521 104.112L148.985 104.544C148.889 104.064 148.686 103.728 148.377 103.536C148.067 103.333 147.683 103.232 147.225 103.232C146.777 103.232 146.425 103.317 146.169 103.488C145.913 103.648 145.785 103.877 145.785 104.176C145.785 104.496 145.907 104.731 146.153 104.88C146.409 105.029 146.75 105.141 147.177 105.216L147.737 105.312C148.302 105.408 148.819 105.541 149.289 105.712C149.758 105.883 150.126 106.128 150.393 106.448C150.67 106.768 150.809 107.195 150.809 107.728C150.809 108.517 150.515 109.131 149.929 109.568C149.342 110.005 148.553 110.224 147.561 110.224ZM156.262 110C155.782 110 155.398 109.856 155.11 109.568C154.833 109.28 154.694 108.896 154.694 108.416V103.504H152.518V102.112H154.694V99.504H156.342V102.112H158.694V103.504H156.342V108.128C156.342 108.448 156.491 108.608 156.79 108.608H158.438V110H156.262ZM161.369 110V102.112H163.017V110H161.369ZM162.201 101.04C161.881 101.04 161.609 100.939 161.385 100.736C161.171 100.523 161.065 100.251 161.065 99.92C161.065 99.5893 161.171 99.3227 161.385 99.12C161.609 98.9067 161.881 98.8 162.201 98.8C162.531 98.8 162.803 98.9067 163.017 99.12C163.23 99.3227 163.337 99.5893 163.337 99.92C163.337 100.251 163.23 100.523 163.017 100.736C162.803 100.939 162.531 101.04 162.201 101.04ZM166.201 110V102.112H167.817V103.296H168.073C168.223 102.976 168.489 102.677 168.873 102.4C169.257 102.123 169.828 101.984 170.585 101.984C171.183 101.984 171.711 102.117 172.169 102.384C172.639 102.651 173.007 103.029 173.273 103.52C173.54 104 173.673 104.581 173.673 105.264V110H172.025V105.392C172.025 104.709 171.855 104.208 171.513 103.888C171.172 103.557 170.703 103.392 170.105 103.392C169.423 103.392 168.873 103.616 168.457 104.064C168.052 104.512 167.849 105.163 167.849 106.016V110H166.201ZM176.4 106.096V105.856C176.4 105.024 176.565 104.315 176.896 103.728C177.237 103.141 177.685 102.688 178.24 102.368C178.794 102.048 179.402 101.888 180.064 101.888C180.832 101.888 181.418 102.032 181.824 102.32C182.24 102.608 182.544 102.917 182.736 103.248H182.992V102.112H184.592V111.616C184.592 112.096 184.448 112.48 184.16 112.768C183.882 113.056 183.498 113.2 183.008 113.2H177.696V111.76H182.496C182.805 111.76 182.96 111.6 182.96 111.28V108.768H182.704C182.586 108.96 182.421 109.157 182.208 109.36C181.994 109.563 181.712 109.728 181.36 109.856C181.018 109.984 180.586 110.048 180.064 110.048C179.402 110.048 178.789 109.893 178.224 109.584C177.669 109.264 177.226 108.811 176.896 108.224C176.565 107.627 176.4 106.917 176.4 106.096ZM180.512 108.608C181.226 108.608 181.813 108.384 182.272 107.936C182.741 107.477 182.976 106.848 182.976 106.048V105.904C182.976 105.083 182.746 104.453 182.288 104.016C181.829 103.568 181.237 103.344 180.512 103.344C179.808 103.344 179.221 103.568 178.752 104.016C178.293 104.453 178.064 105.083 178.064 105.904V106.048C178.064 106.848 178.293 107.477 178.752 107.936C179.221 108.384 179.808 108.608 180.512 108.608ZM192.104 106.656V105.152H196.84V106.656H192.104ZM208.108 110.224C207.297 110.224 206.583 110.069 205.964 109.76C205.345 109.44 204.865 108.997 204.524 108.432C204.183 107.867 204.012 107.211 204.012 106.464V102.592C204.012 101.717 204.183 100.981 204.524 100.384C204.876 99.7867 205.367 99.3387 205.996 99.04C206.625 98.7307 207.356 98.576 208.188 98.576C209.009 98.576 209.719 98.72 210.316 99.008C210.913 99.2853 211.372 99.6853 211.692 100.208C212.012 100.72 212.172 101.323 212.172 102.016H210.476C210.476 101.461 210.289 101.003 209.916 100.64C209.553 100.267 208.977 100.08 208.188 100.08C207.388 100.08 206.769 100.293 206.332 100.72C205.905 101.136 205.692 101.717 205.692 102.464V103.808H205.948C206.129 103.552 206.423 103.307 206.828 103.072C207.244 102.837 207.831 102.72 208.588 102.72C209.249 102.72 209.857 102.864 210.412 103.152C210.967 103.44 211.409 103.851 211.74 104.384C212.081 104.917 212.252 105.563 212.252 106.32V106.512C212.252 107.248 212.076 107.899 211.724 108.464C211.372 109.019 210.881 109.451 210.252 109.76C209.633 110.069 208.919 110.224 208.108 110.224ZM208.124 108.72C208.871 108.72 209.463 108.517 209.9 108.112C210.348 107.707 210.572 107.163 210.572 106.48V106.352C210.572 105.893 210.471 105.499 210.268 105.168C210.065 104.827 209.777 104.56 209.404 104.368C209.041 104.176 208.615 104.08 208.124 104.08C207.644 104.08 207.217 104.176 206.844 104.368C206.481 104.56 206.199 104.827 205.996 105.168C205.793 105.499 205.692 105.893 205.692 106.352V106.48C205.692 107.163 205.911 107.707 206.348 108.112C206.796 108.517 207.388 108.72 208.124 108.72ZM218.866 110.224C217.565 110.224 216.525 109.856 215.746 109.12C214.978 108.373 214.594 107.253 214.594 105.76V103.04C214.594 101.579 214.978 100.469 215.746 99.712C216.525 98.9547 217.565 98.576 218.866 98.576C220.178 98.576 221.218 98.9547 221.986 99.712C222.765 100.469 223.154 101.579 223.154 103.04V105.76C223.154 107.253 222.765 108.373 221.986 109.12C221.218 109.856 220.178 110.224 218.866 110.224ZM218.866 108.72C219.752 108.72 220.408 108.469 220.834 107.968C221.261 107.456 221.474 106.741 221.474 105.824V102.944C221.474 102.027 221.245 101.323 220.786 100.832C220.328 100.331 219.688 100.08 218.866 100.08C218.034 100.08 217.394 100.336 216.946 100.848C216.498 101.349 216.274 102.048 216.274 102.944V105.824C216.274 106.763 216.488 107.483 216.914 107.984C217.352 108.475 218.002 108.72 218.866 108.72ZM227.022 110.208L225.998 109.376L234.75 98.592L235.774 99.424L227.022 110.208ZM233.95 110.176C233.16 110.176 232.536 109.957 232.078 109.52C231.619 109.072 231.39 108.469 231.39 107.712V107.616C231.39 106.848 231.619 106.245 232.078 105.808C232.536 105.36 233.16 105.136 233.95 105.136C234.728 105.136 235.352 105.36 235.822 105.808C236.291 106.245 236.526 106.848 236.526 107.616V107.712C236.526 108.469 236.291 109.072 235.822 109.52C235.363 109.957 234.739 110.176 233.95 110.176ZM233.95 109.056C234.334 109.056 234.632 108.939 234.846 108.704C235.07 108.469 235.182 108.16 235.182 107.776V107.552C235.182 107.157 235.07 106.843 234.846 106.608C234.632 106.373 234.334 106.256 233.95 106.256C233.576 106.256 233.278 106.373 233.054 106.608C232.84 106.843 232.734 107.157 232.734 107.552V107.776C232.734 108.16 232.84 108.469 233.054 108.704C233.278 108.939 233.576 109.056 233.95 109.056ZM227.822 103.664C227.032 103.664 226.403 103.445 225.934 103.008C225.475 102.56 225.246 101.957 225.246 101.2V101.088C225.246 100.32 225.475 99.7173 225.934 99.28C226.403 98.8427 227.032 98.624 227.822 98.624C228.6 98.624 229.219 98.8427 229.678 99.28C230.147 99.7173 230.382 100.32 230.382 101.088V101.2C230.382 101.957 230.152 102.56 229.694 103.008C229.235 103.445 228.611 103.664 227.822 103.664ZM227.822 102.544C228.195 102.544 228.488 102.427 228.702 102.192C228.926 101.947 229.038 101.632 229.038 101.248V101.024C229.038 100.64 228.926 100.331 228.702 100.096C228.488 99.8613 228.195 99.744 227.822 99.744C227.438 99.744 227.134 99.8613 226.91 100.096C226.696 100.331 226.59 100.64 226.59 101.024V101.248C226.59 101.632 226.696 101.947 226.91 102.192C227.134 102.427 227.438 102.544 227.822 102.544Z" fill="white"/>
</svg>
