<svg width="28" height="17" viewBox="0 0 28 17" fill="none" xmlns="http://www.w3.org/2000/svg">
<g clip-path="url(#clip0_31_366)">
<path d="M0 0H32.3V17H0" fill="#B31942"/>
<path d="M0 1.96143H32.3H0ZM32.3 4.57681H0H32.3ZM0 7.19219H32.3H0ZM32.3 9.80758H0H32.3ZM0 12.423H32.3H0ZM32.3 15.0383H0H32.3Z" fill="black"/>
<path d="M0 1.96143H32.3M32.3 4.57681H0M0 7.19219H32.3M32.3 9.80758H0M0 12.423H32.3M32.3 15.0383H0" stroke="white" stroke-width="1.30769"/>
<path d="M0 0H12.92V9.15385H0" fill="#0A3161"/>
<path d="M1.07267 0.391602L1.38013 1.33786L0.575195 0.753039H1.57015L0.765214 1.33786L1.07267 0.391602Z" fill="white"/>
<path d="M1.07267 2.22241L1.38013 3.16867L0.575195 2.58385H1.57015L0.765214 3.16867L1.07267 2.22241Z" fill="white"/>
<path d="M1.07267 4.05298L1.38013 4.99923L0.575195 4.41442H1.57015L0.765214 4.99923L1.07267 4.05298Z" fill="white"/>
<path d="M1.07267 5.88379L1.38013 6.83004L0.575195 6.24523H1.57015L0.765214 6.83004L1.07267 5.88379Z" fill="white"/>
<path d="M1.07267 7.71484L1.38013 8.6611L0.575195 8.07628H1.57015L0.765214 8.6611L1.07267 7.71484Z" fill="white"/>
<path d="M2.1508 1.30737L2.45825 2.25363L1.65332 1.66881H2.64827L1.84334 2.25363L2.1508 1.30737Z" fill="white"/>
<path d="M2.1508 3.13818L2.45825 4.08444L1.65332 3.49962H2.64827L1.84334 4.08444L2.1508 3.13818Z" fill="white"/>
<path d="M2.1508 4.96899L2.45825 5.91525L1.65332 5.33043H2.64827L1.84334 5.91525L2.1508 4.96899Z" fill="white"/>
<path d="M2.1508 6.79956L2.45825 7.74582L1.65332 7.161H2.64827L1.84334 7.74582L2.1508 6.79956Z" fill="white"/>
<path d="M3.22892 0.391602L3.53638 1.33786L2.73145 0.753039H3.7264L2.92146 1.33786L3.22892 0.391602Z" fill="white"/>
<path d="M3.22892 2.22241L3.53638 3.16867L2.73145 2.58385H3.7264L2.92146 3.16867L3.22892 2.22241Z" fill="white"/>
<path d="M3.22892 4.05298L3.53638 4.99923L2.73145 4.41442H3.7264L2.92146 4.99923L3.22892 4.05298Z" fill="white"/>
<path d="M3.22892 5.88379L3.53638 6.83004L2.73145 6.24523H3.7264L2.92146 6.83004L3.22892 5.88379Z" fill="white"/>
<path d="M3.22892 7.71484L3.53638 8.6611L2.73145 8.07628H3.7264L2.92146 8.6611L3.22892 7.71484Z" fill="white"/>
<path d="M4.30509 1.30688L4.61255 2.25314L3.80762 1.66832H4.80257L3.99764 2.25314L4.30509 1.30688Z" fill="white"/>
<path d="M4.30509 3.1377L4.61255 4.08395L3.80762 3.49913H4.80257L3.99764 4.08395L4.30509 3.1377Z" fill="white"/>
<path d="M4.30509 4.96851L4.61255 5.91476L3.80762 5.32994H4.80257L3.99764 5.91476L4.30509 4.96851Z" fill="white"/>
<path d="M4.30509 6.79907L4.61255 7.74533L3.80762 7.16051H4.80257L3.99764 7.74533L4.30509 6.79907Z" fill="white"/>
<path d="M5.38419 0.39209L5.69165 1.33834L4.88672 0.753527H5.88167L5.07674 1.33834L5.38419 0.39209Z" fill="white"/>
<path d="M5.38419 2.2229L5.69165 3.16916L4.88672 2.58434H5.88167L5.07674 3.16916L5.38419 2.2229Z" fill="white"/>
<path d="M5.38419 4.05347L5.69165 4.99972L4.88672 4.4149H5.88167L5.07674 4.99972L5.38419 4.05347Z" fill="white"/>
<path d="M5.38419 5.88428L5.69165 6.83053L4.88672 6.24571H5.88167L5.07674 6.83053L5.38419 5.88428Z" fill="white"/>
<path d="M5.38419 7.71509L5.69165 8.66134L4.88672 8.07653H5.88167L5.07674 8.66134L5.38419 7.71509Z" fill="white"/>
<path d="M6.46134 1.30713L6.7688 2.25338L5.96387 1.66857H6.95882L6.15389 2.25338L6.46134 1.30713Z" fill="white"/>
<path d="M6.46134 3.13794L6.7688 4.08419L5.96387 3.49938H6.95882L6.15389 4.08419L6.46134 3.13794Z" fill="white"/>
<path d="M6.46134 4.96851L6.7688 5.91476L5.96387 5.32994H6.95882L6.15389 5.91476L6.46134 4.96851Z" fill="white"/>
<path d="M6.46134 6.79932L6.7688 7.74557L5.96387 7.16075H6.95882L6.15389 7.74557L6.46134 6.79932Z" fill="white"/>
<path d="M7.53556 0.391602L7.84302 1.33786L7.03809 0.753039H8.03304L7.2281 1.33786L7.53556 0.391602Z" fill="white"/>
<path d="M7.53556 2.22241L7.84302 3.16867L7.03809 2.58385H8.03304L7.2281 3.16867L7.53556 2.22241Z" fill="white"/>
<path d="M7.53556 4.05298L7.84302 4.99923L7.03809 4.41442H8.03304L7.2281 4.99923L7.53556 4.05298Z" fill="white"/>
<path d="M7.53556 5.88403L7.84302 6.83029L7.03809 6.24547H8.03304L7.2281 6.83029L7.53556 5.88403Z" fill="white"/>
<path d="M7.53556 7.71484L7.84302 8.6611L7.03809 8.07628H8.03304L7.2281 8.6611L7.53556 7.71484Z" fill="white"/>
<path d="M8.61369 1.30737L8.92114 2.25363L8.11621 1.66881H9.11116L8.30623 2.25363L8.61369 1.30737Z" fill="white"/>
<path d="M8.61369 3.13818L8.92114 4.08444L8.11621 3.49962H9.11116L8.30623 4.08444L8.61369 3.13818Z" fill="white"/>
<path d="M8.61369 4.96899L8.92114 5.91525L8.11621 5.33043H9.11116L8.30623 5.91525L8.61369 4.96899Z" fill="white"/>
<path d="M8.61369 6.79956L8.92114 7.74582L8.11621 7.161H9.11116L8.30623 7.74582L8.61369 6.79956Z" fill="white"/>
<path d="M9.68791 0.39209L9.99536 1.33834L9.19043 0.753527H10.1854L9.38045 1.33834L9.68791 0.39209Z" fill="white"/>
<path d="M9.68791 2.2229L9.99536 3.16916L9.19043 2.58434H10.1854L9.38045 3.16916L9.68791 2.2229Z" fill="white"/>
<path d="M9.68791 4.05347L9.99536 4.99972L9.19043 4.4149H10.1854L9.38045 4.99972L9.68791 4.05347Z" fill="white"/>
<path d="M9.68791 5.88452L9.99536 6.83078L9.19043 6.24596H10.1854L9.38045 6.83078L9.68791 5.88452Z" fill="white"/>
<path d="M9.68791 7.71533L9.99536 8.66159L9.19043 8.07677H10.1854L9.38045 8.66159L9.68791 7.71533Z" fill="white"/>
<path d="M10.766 1.30737L11.0735 2.25363L10.2686 1.66881H11.2635L10.4586 2.25363L10.766 1.30737Z" fill="white"/>
<path d="M10.766 3.13818L11.0735 4.08444L10.2686 3.49962H11.2635L10.4586 4.08444L10.766 3.13818Z" fill="white"/>
<path d="M10.766 4.96899L11.0735 5.91525L10.2686 5.33043H11.2635L10.4586 5.91525L10.766 4.96899Z" fill="white"/>
<path d="M10.766 6.80005L11.0735 7.7463L10.2686 7.16149H11.2635L10.4586 7.7463L10.766 6.80005Z" fill="white"/>
<path d="M11.8432 0.39209L12.1506 1.33834L11.3457 0.753527H12.3407L11.5357 1.33834L11.8432 0.39209Z" fill="white"/>
<path d="M11.8432 2.2229L12.1506 3.16916L11.3457 2.58434H12.3407L11.5357 3.16916L11.8432 2.2229Z" fill="white"/>
<path d="M11.8432 4.05347L12.1506 4.99972L11.3457 4.4149H12.3407L11.5357 4.99972L11.8432 4.05347Z" fill="white"/>
<path d="M11.8432 5.88428L12.1506 6.83053L11.3457 6.24571H12.3407L11.5357 6.83053L11.8432 5.88428Z" fill="white"/>
<path d="M11.8432 7.71509L12.1506 8.66134L11.3457 8.07653H12.3407L11.5357 8.66134L11.8432 7.71509Z" fill="white"/>
</g>
<defs>
<clipPath id="clip0_31_366">
<rect width="28" height="17" rx="2" fill="white"/>
</clipPath>
</defs>
</svg>
